<svg width="102" height="105" viewBox="0 0 102 105" fill="none" xmlns="http://www.w3.org/2000/svg">
    <path d="M92.7035 6.75061H9.29643C7.63114 6.75256 6.0346 7.43442 4.85708 8.64661C3.67956 9.8588 3.01723 11.5023 3.01538 13.2166V74.3246C3.01724 76.0389 3.67958 77.6824 4.8571 78.8946C6.03462 80.1068 7.63115 80.7886 9.29643 80.7906H43.4676L41.4188 96.1987H36.7703C36.5061 96.1987 36.2528 96.3067 36.066 96.499C35.8792 96.6913 35.7742 96.9522 35.7742 97.2241C35.7742 97.4961 35.8792 97.7569 36.066 97.9492C36.2528 98.1415 36.5061 98.2495 36.7703 98.2495H65.6323C65.8965 98.2495 66.1499 98.1415 66.3367 97.9492C66.5235 97.7569 66.6284 97.4961 66.6284 97.2241C66.6284 96.9522 66.5235 96.6913 66.3367 96.499C66.1499 96.3067 65.8965 96.1987 65.6323 96.1987H60.9642L58.9155 80.7906H92.7035C94.3688 80.7887 95.9654 80.1068 97.143 78.8946C98.3205 77.6824 98.9829 76.0389 98.9847 74.3246V13.2166C98.9829 11.5023 98.3205 9.85875 97.143 8.64655C95.9654 7.43436 94.3688 6.75252 92.7035 6.75061ZM75.105 27.8353C74.6368 27.3089 74.3277 26.6535 74.2153 25.9493C74.103 25.245 74.1923 24.5223 74.4723 23.8694C74.7523 23.2165 75.211 22.6617 75.7922 22.2727C76.3735 21.8836 77.0522 21.6773 77.7455 21.6787C78.4388 21.6802 79.1167 21.8895 79.6964 22.281C80.2761 22.6725 80.7325 23.2293 81.0099 23.8834C81.2873 24.5374 81.3737 25.2605 81.2585 25.9643C81.1433 26.6681 80.8316 27.3221 80.3613 27.8465C79.9893 28.2576 79.706 28.745 79.5298 29.2766C79.3536 29.8083 79.2885 30.3723 79.3387 30.9317C79.3848 31.4584 79.54 31.9688 79.7939 32.4286C80.0478 32.8883 80.3944 33.2867 80.8105 33.5969C81.1164 33.8273 81.4477 34.0197 81.7974 34.1701C83.3873 34.8518 84.4556 36.5649 84.4556 38.4331V39.5017H71.1122V38.3923C71.1122 36.5408 72.1731 34.847 73.7522 34.1779C73.9348 34.1004 74.1125 34.0113 74.2843 33.9111C74.7673 33.6305 75.1822 33.2407 75.4975 32.7711C75.8129 32.3015 76.0206 31.7643 76.1049 31.2C76.1965 30.5978 76.154 29.9821 75.9808 29.3993C75.8076 28.8164 75.5081 28.2817 75.105 27.8353ZM82.4869 32.4662C82.2678 32.3718 82.0601 32.2512 81.8685 32.1067C81.6576 31.9491 81.482 31.7468 81.3534 31.5134C81.2249 31.2801 81.1465 31.0211 81.1234 30.7539C81.0973 30.4536 81.1332 30.1511 81.2287 29.8661C81.3241 29.5811 81.477 29.3201 81.6772 29.1002C82.3842 28.3126 82.8531 27.3301 83.0265 26.2726C83.2 25.2152 83.0705 24.1287 82.6539 23.1457C82.2374 22.1628 81.5517 21.3261 80.6807 20.7377C79.8098 20.1493 78.7912 19.8348 77.7494 19.8326C76.7077 19.8304 75.6878 20.1406 74.8145 20.7252C73.9412 21.3098 73.2522 22.1437 72.8316 23.1248C72.4111 24.1059 72.2772 25.1919 72.4464 26.2501C72.6156 27.3082 73.0805 28.2928 73.7844 29.0834C74.0044 29.3256 74.1682 29.6161 74.2634 29.9329C74.3586 30.2497 74.3827 30.5847 74.334 30.9125C74.2926 31.2028 74.187 31.4794 74.0251 31.7209C73.8633 31.9624 73.6496 32.1623 73.4007 32.3052C73.2937 32.3674 73.1831 32.4229 73.0696 32.4713C71.9434 32.9626 70.9851 33.7883 70.3171 34.8429C69.6491 35.8976 69.3017 37.1334 69.3192 38.3923V39.5021H64.6746V36.865C64.6746 36.6203 64.5801 36.3856 64.412 36.2125C64.2439 36.0394 64.0158 35.9422 63.7781 35.9422H59.1979V32.6667C59.1976 32.1827 59.0106 31.7187 58.6782 31.3765C58.3458 31.0343 57.895 30.8418 57.4249 30.8415H51.8965V18.1751H96.9926V39.5019H86.2486V38.433C86.2657 37.1668 85.9174 35.9238 85.2478 34.8616C84.5781 33.7994 83.6173 32.9658 82.4869 32.4662ZM51.0881 50.18H43.9167V37.7879H62.8816V50.1799H56.4922C56.2734 50.1798 56.0621 50.2623 55.8982 50.4116L51.9845 53.9755V51.1028C51.9845 50.9816 51.9613 50.8616 51.9162 50.7496C51.8712 50.6376 51.8052 50.5359 51.7219 50.4502C51.6387 50.3645 51.5398 50.2965 51.4311 50.2501C51.3223 50.2038 51.2058 50.18 51.0881 50.18ZM32.2304 64.9432V63.8645C32.2476 62.5983 31.8994 61.3554 31.2298 60.2932C30.5601 59.2309 29.5992 58.3972 28.4689 57.8977C28.2497 57.8032 28.0421 57.6824 27.8504 57.5378C27.6395 57.3803 27.4639 57.178 27.3354 56.9447C27.2069 56.7114 27.1284 56.4524 27.1054 56.1852C27.0793 55.8849 27.1151 55.5824 27.2105 55.2974C27.3059 55.0125 27.4588 54.7515 27.659 54.5315C28.366 53.7439 28.8349 52.7614 29.0084 51.7039C29.1818 50.6465 29.0523 49.56 28.6357 48.577C28.2192 47.5941 27.5335 46.7574 26.6625 46.169C25.7916 45.5807 24.773 45.2662 23.7312 45.2639C22.6895 45.2617 21.6696 45.5719 20.7963 46.1565C19.923 46.7412 19.234 47.575 18.8134 48.5561C18.3929 49.5373 18.259 50.6232 18.4282 51.6814C18.5974 52.7396 19.0623 53.7241 19.7662 54.5147C19.9862 54.7569 20.15 55.0474 20.2451 55.3641C20.3403 55.6809 20.3645 56.0158 20.3158 56.3436C20.2747 56.6337 20.1692 56.9101 20.0077 57.1515C19.8461 57.3929 19.6327 57.5928 19.3841 57.7357C19.2767 57.7982 19.1656 57.8539 19.0516 57.9023C17.9254 58.3936 16.9671 59.2194 16.2991 60.2741C15.631 61.3288 15.2836 62.5646 15.3012 63.8235V64.9431H5.00761V41.3476H37.1444V44.7519C37.1448 45.2358 37.3317 45.6999 37.6641 46.0421C37.9965 46.3843 38.4473 46.5767 38.9174 46.5771H42.1237V51.1028C42.1237 51.3475 42.2182 51.5822 42.3863 51.7553C42.5544 51.9284 42.7824 52.0256 43.0202 52.0256H50.1036V64.9431L32.2304 64.9432ZM21.0868 53.2668C20.6186 52.7404 20.3095 52.085 20.1971 51.3808C20.0848 50.6765 20.1741 49.9538 20.4541 49.3009C20.7342 48.648 21.1928 48.0932 21.7741 47.7041C22.3553 47.3151 23.0341 47.1088 23.7274 47.1102C24.4207 47.1117 25.0986 47.321 25.6783 47.7125C26.258 48.104 26.7144 48.6608 26.9918 49.3148C27.2692 49.9689 27.3555 50.692 27.2404 51.3958C27.1252 52.0996 26.8134 52.7536 26.3431 53.278C25.9712 53.6891 25.6878 54.1764 25.5116 54.7081C25.3354 55.2397 25.2704 55.8037 25.3208 56.3631C25.3668 56.8897 25.522 57.4001 25.7758 57.8598C26.0297 58.3195 26.3763 58.7178 26.7923 59.0279C27.0982 59.2584 27.4294 59.4509 27.7791 59.6013L27.7795 59.6015C29.3693 60.283 30.4374 61.9961 30.4374 63.8645V64.9329H17.0942V63.8236C17.0942 61.9719 18.1551 60.2782 19.7336 59.6092C19.9164 59.5317 20.0944 59.4426 20.2665 59.3425C20.7494 59.0618 21.1642 58.672 21.4795 58.2023C21.7948 57.7327 22.0024 57.1955 22.0867 56.6312C22.1782 56.0291 22.1358 55.4134 21.9626 54.8306C21.7894 54.2478 21.49 53.7131 21.0868 53.2668ZM57.4049 35.9422H43.0202C42.7825 35.9422 42.5544 36.0394 42.3863 36.2125C42.2182 36.3856 42.1237 36.6203 42.1237 36.865V44.7314H38.9374V32.6871H57.4049V35.9422ZM38.9174 30.8414C38.4473 30.8418 37.9965 31.0342 37.6641 31.3764C37.3317 31.7186 37.1448 32.1827 37.1444 32.6666V39.5019H32.2303V38.433C32.2475 37.1668 31.8992 35.9238 31.2295 34.8616C30.5599 33.7994 29.599 32.9657 28.4687 32.4661H28.4684C28.2493 32.3718 28.0419 32.2511 27.8503 32.1066C27.6395 31.949 27.4639 31.7468 27.3354 31.5134C27.2068 31.2801 27.1284 31.0211 27.1053 30.754C27.0792 30.4537 27.115 30.1511 27.2104 29.8661C27.3058 29.5811 27.4587 29.3201 27.659 29.1001C28.366 28.3125 28.8348 27.33 29.0083 26.2725C29.1817 25.2151 29.0523 24.1286 28.6357 23.1456C28.2191 22.1627 27.5334 21.326 26.6625 20.7376C25.7915 20.1492 24.7729 19.8347 23.7312 19.8325C22.6894 19.8303 21.6696 20.1405 20.7962 20.7251C19.9229 21.3097 19.2339 22.1436 18.8134 23.1247C18.3928 24.1058 18.259 25.1918 18.4282 26.25C18.5974 27.3081 19.0623 28.2927 19.7661 29.0833C19.9861 29.3255 20.1499 29.616 20.2451 29.9328C20.3403 30.2496 20.3645 30.5846 20.3157 30.9124C20.2745 31.2026 20.1689 31.4792 20.0072 31.7206C19.8454 31.9621 19.6319 32.162 19.383 32.3049C19.2759 32.3672 19.1652 32.4227 19.0515 32.4711C17.9254 32.9624 16.9671 33.7881 16.299 34.8428C15.631 35.8974 15.2836 37.1332 15.3012 38.3921V39.5019H5.00755V18.1751H50.1036V30.8414H38.9174ZM21.0867 27.8353C20.6186 27.3089 20.3094 26.6535 20.1971 25.9493C20.0847 25.245 20.174 24.5223 20.454 23.8694C20.7341 23.2165 21.1927 22.6617 21.774 22.2727C22.3553 21.8836 23.034 21.6773 23.7273 21.6787C24.4206 21.6802 25.0985 21.8895 25.6782 22.281C26.2579 22.6725 26.7143 23.2293 26.9917 23.8834C27.2691 24.5374 27.3555 25.2605 27.2403 25.9643C27.1251 26.6681 26.8133 27.3221 26.343 27.8465C25.9711 28.2576 25.6877 28.745 25.5116 29.2767C25.3354 29.8084 25.2704 30.3724 25.3208 30.9318C25.3668 31.4584 25.522 31.9688 25.7758 32.4285C26.0297 32.8882 26.3763 33.2865 26.7923 33.5966C27.0982 33.8272 27.4295 34.0196 27.7793 34.17C29.3691 34.8517 30.4374 36.5648 30.4374 38.433V39.5016H17.0942V38.3922C17.0942 36.5404 18.1551 34.8469 19.7346 34.1776C19.917 34.1 20.0947 34.011 20.2665 33.911C20.7494 33.6304 21.1642 33.2406 21.4795 32.7709C21.7948 32.3013 22.0024 31.7641 22.0867 31.1999C22.1782 30.5977 22.1358 29.982 21.9626 29.3992C21.7893 28.8164 21.4899 28.2817 21.0867 27.8353ZM9.29643 8.80139H92.7035C93.8406 8.80273 94.9308 9.26833 95.7349 10.096C96.539 10.9238 96.9913 12.046 96.9926 13.2166V16.1243H5.00757V13.2166C5.00883 12.046 5.46109 10.9238 6.26513 10.0961C7.06917 9.26835 8.15932 8.80274 9.29643 8.80139ZM58.9533 96.1987H43.4298L45.4784 80.7906H56.9046L58.9533 96.1987ZM92.7035 78.7398H9.29643C8.15932 78.7384 7.06917 78.2728 6.26513 77.4451C5.46109 76.6174 5.00883 75.4952 5.00757 74.3246V66.7888H50.9929C50.9953 66.7888 50.9976 66.7896 51.0001 66.7896C51.0026 66.7896 51.0049 66.7888 51.0074 66.7888H85.0071C85.0401 66.7873 85.073 66.7839 85.1056 66.7786H85.3521C85.5898 66.7786 85.8179 66.6813 85.986 66.5083C86.1541 66.3352 86.2486 66.1005 86.2486 65.8557V63.8644C86.2658 62.5983 85.9175 61.3553 85.2479 60.2931C84.5783 59.2309 83.6175 58.3972 82.4871 57.8977C82.2679 57.8032 82.0602 57.6824 81.8685 57.5378C81.6576 57.3802 81.482 57.1779 81.3534 56.9446C81.2249 56.7112 81.1465 56.4522 81.1234 56.185C81.0973 55.8848 81.1332 55.5823 81.2287 55.2973C81.3241 55.0124 81.477 54.7514 81.6772 54.5315C82.3842 53.7439 82.8531 52.7614 83.0265 51.7039C83.2 50.6465 83.0705 49.56 82.6539 48.577C82.2373 47.5941 81.5517 46.7574 80.6807 46.169C79.8097 45.5807 78.7912 45.2662 77.7494 45.2639C76.7076 45.2617 75.6878 45.5719 74.8145 46.1565C73.9412 46.7412 73.2521 47.575 72.8316 48.5561C72.4111 49.5373 72.2772 50.6232 72.4464 51.6814C72.6156 52.7396 73.0805 53.7241 73.7844 54.5147C74.0044 54.7569 74.1681 55.0474 74.2633 55.3641C74.3585 55.6809 74.3827 56.0158 74.334 56.3436C74.2927 56.6338 74.1871 56.9103 74.0254 57.1518C73.8637 57.3932 73.6502 57.5932 73.4015 57.7361C73.2943 57.7985 73.1834 57.854 73.0696 57.9023C71.9434 58.3936 70.9851 59.2194 70.3171 60.2741C69.6491 61.3288 69.3017 62.5646 69.3192 63.8235V64.9431H51.8965V56.5196L56.8318 52.0257H63.778C64.0158 52.0257 64.2438 51.9285 64.4119 51.7554C64.5801 51.5823 64.6745 51.3476 64.6745 51.1028V41.3476H96.9926V64.9431H89.4668C89.229 64.9431 89.001 65.0404 88.8329 65.2134C88.6648 65.3865 88.5703 65.6212 88.5703 65.866C88.5703 66.1107 88.6648 66.3455 88.8329 66.5185C89.001 66.6916 89.229 66.7888 89.4668 66.7888H96.9926V74.3246C96.9912 75.4952 96.5389 76.6174 95.7349 77.4452C94.9308 78.2729 93.8406 78.7385 92.7035 78.7398ZM75.105 53.2667C74.6368 52.7403 74.3277 52.0849 74.2153 51.3807C74.103 50.6764 74.1923 49.9537 74.4723 49.3008C74.7523 48.6479 75.211 48.0931 75.7922 47.704C76.3735 47.315 77.0522 47.1087 77.7455 47.1101C78.4388 47.1116 79.1167 47.3209 79.6964 47.7124C80.2761 48.1039 80.7325 48.6607 81.0099 49.3147C81.2873 49.9688 81.3737 50.6919 81.2585 51.3957C81.1433 52.0995 80.8316 52.7535 80.3613 53.2779C79.9893 53.6889 79.706 54.1762 79.5298 54.7078C79.3535 55.2394 79.2884 55.8034 79.3387 56.3627C79.3848 56.8894 79.54 57.3999 79.7938 57.8597C80.0477 58.3195 80.3944 58.7179 80.8105 59.0281C81.1163 59.2585 81.4476 59.4509 81.7973 59.6013L81.7976 59.6015C83.3874 60.283 84.4556 61.9961 84.4556 63.8645V64.9329H71.1122V63.8236C71.1122 61.9719 72.1731 60.2782 73.7513 59.6095C73.9342 59.5319 74.1123 59.4428 74.2845 59.3425C74.7675 59.0619 75.1823 58.672 75.4976 58.2024C75.8129 57.7327 76.0206 57.1955 76.1049 56.6312C76.1965 56.0291 76.154 55.4134 75.9808 54.8306C75.8076 54.2478 75.5081 53.713 75.105 53.2667Z" fill="white"/>
    <path d="M51.0002 69.3958C50.3412 69.3957 49.6971 69.5969 49.1492 69.9738C48.6013 70.3506 48.1742 70.8863 47.9221 71.5129C47.6699 72.1396 47.6039 72.8292 47.7325 73.4945C47.861 74.1598 48.1784 74.7709 48.6443 75.2506C49.1103 75.7302 49.7039 76.0569 50.3502 76.1892C50.9965 76.3215 51.6664 76.2536 52.2752 75.994C52.8839 75.7344 53.4043 75.2948 53.7704 74.7308C54.1364 74.1668 54.3318 73.5037 54.3318 72.8253C54.3308 71.9161 53.9795 71.0443 53.3549 70.4014C52.7303 69.7584 51.8834 69.3968 51.0002 69.3958ZM51.0002 74.2043C50.7352 74.2043 50.4762 74.1234 50.256 73.9719C50.0357 73.8204 49.864 73.605 49.7626 73.3531C49.6612 73.1011 49.6347 72.8239 49.6864 72.5564C49.7381 72.2889 49.8656 72.0432 50.053 71.8504C50.2403 71.6575 50.479 71.5262 50.7388 71.473C50.9987 71.4198 51.268 71.4471 51.5127 71.5515C51.7575 71.6558 51.9667 71.8326 52.1139 72.0593C52.2611 72.2861 52.3396 72.5527 52.3396 72.8254C52.3392 73.191 52.1979 73.5414 51.9468 73.7999C51.6957 74.0584 51.3553 74.2038 51.0002 74.2043Z" fill="white"/>
    <path d="M47.2666 43.2041H59.4498C59.6876 43.2041 59.9156 43.1069 60.0837 42.9338C60.2519 42.7607 60.3463 42.526 60.3463 42.2812C60.3463 42.0365 60.2519 41.8018 60.0837 41.6287C59.9156 41.4556 59.6876 41.3584 59.4498 41.3584H47.2666C47.0288 41.3584 46.8008 41.4556 46.6327 41.6287C46.4646 41.8018 46.3701 42.0365 46.3701 42.2812C46.3701 42.526 46.4646 42.7607 46.6327 42.9338C46.8008 43.1069 47.0288 43.2041 47.2666 43.2041Z" fill="white"/>
    <path d="M54.3941 46.3303C54.3941 46.0856 54.2996 45.8508 54.1315 45.6778C53.9634 45.5047 53.7354 45.4075 53.4976 45.4075H47.2666C47.0288 45.4075 46.8008 45.5047 46.6327 45.6778C46.4646 45.8508 46.3701 46.0856 46.3701 46.3303C46.3701 46.5751 46.4646 46.8098 46.6327 46.9829C46.8008 47.1559 47.0288 47.2532 47.2666 47.2532H53.4976C53.7354 47.2532 53.9634 47.1559 54.1315 46.9829C54.2996 46.8098 54.3941 46.5751 54.3941 46.3303Z" fill="white"/>
    <path d="M59.45 45.4075H56.7021C56.4644 45.4075 56.2364 45.5047 56.0682 45.6778C55.9001 45.8508 55.8057 46.0856 55.8057 46.3303C55.8057 46.5751 55.9001 46.8098 56.0682 46.9829C56.2364 47.1559 56.4644 47.2532 56.7021 47.2532H59.45C59.6877 47.2532 59.9157 47.1559 60.0839 46.9829C60.252 46.8098 60.3464 46.5751 60.3464 46.3303C60.3464 46.0856 60.252 45.8508 60.0839 45.6778C59.9157 45.5047 59.6877 45.4075 59.45 45.4075Z" fill="white"/>
    <path d="M79.5476 26.8138C79.6914 26.6941 79.783 26.5204 79.8024 26.3311C79.8217 26.1418 79.7673 25.9523 79.6509 25.8043C79.5346 25.6563 79.3659 25.562 79.1819 25.542C78.998 25.5221 78.8139 25.5782 78.6702 25.6979C78.4318 25.9224 78.1214 26.0485 77.7983 26.0519C77.4752 26.0554 77.1623 25.9361 76.9194 25.7168C76.8509 25.6542 76.7711 25.6062 76.6846 25.5754C76.598 25.5446 76.5064 25.5317 76.415 25.5373C76.3236 25.5429 76.2342 25.5671 76.1519 25.6083C76.0695 25.6495 75.9959 25.707 75.9351 25.7775C75.8744 25.8481 75.8277 25.9302 75.7978 26.0193C75.7679 26.1084 75.7553 26.2027 75.7608 26.2968C75.7663 26.3909 75.7897 26.4829 75.8297 26.5677C75.8698 26.6525 75.9256 26.7283 75.9942 26.7908C76.4989 27.2354 77.1396 27.4827 77.8038 27.4896C78.4441 27.4817 79.0613 27.2426 79.5476 26.8138Z" fill="white"/>
    <path d="M25.5295 26.8138C25.6732 26.6941 25.7649 26.5204 25.7843 26.3311C25.8036 26.1418 25.7491 25.9523 25.6328 25.8043C25.5164 25.6563 25.3477 25.562 25.1638 25.542C24.9799 25.5221 24.7958 25.5782 24.6521 25.6979C24.4135 25.9222 24.1031 26.0481 23.7801 26.0516C23.4571 26.055 23.1441 25.9358 22.9011 25.7168C22.8326 25.6542 22.7528 25.6062 22.6663 25.5754C22.5797 25.5446 22.4881 25.5317 22.3967 25.5373C22.3053 25.5429 22.2159 25.5671 22.1336 25.6083C22.0512 25.6495 21.9776 25.707 21.9168 25.7775C21.856 25.8481 21.8094 25.9302 21.7795 26.0193C21.7496 26.1084 21.737 26.2027 21.7425 26.2968C21.7479 26.3909 21.7714 26.4829 21.8114 26.5677C21.8515 26.6525 21.9073 26.7283 21.9758 26.7908C22.4806 27.2353 23.1213 27.4827 23.7855 27.4896C24.4258 27.4817 25.0431 27.2426 25.5295 26.8138Z" fill="white"/>
    <path d="M79.5476 52.2454C79.6914 52.1256 79.783 51.9519 79.8024 51.7626C79.8217 51.5733 79.7673 51.3838 79.6509 51.2358C79.5346 51.0878 79.3659 50.9935 79.1819 50.9735C78.998 50.9536 78.8139 51.0097 78.6702 51.1295C78.4318 51.3539 78.1213 51.4799 77.7983 51.4834C77.4753 51.4869 77.1623 51.3675 76.9194 51.1483C76.7811 51.022 76.5996 50.9574 76.415 50.9688C76.2304 50.9802 76.0578 51.0666 75.9351 51.2091C75.8124 51.3515 75.7497 51.5383 75.7608 51.7283C75.7718 51.9183 75.8558 52.096 75.9942 52.2223C76.4989 52.6669 77.1396 52.9143 77.8038 52.9211C78.4441 52.9133 79.0613 52.6741 79.5476 52.2454Z" fill="white"/>
    <path d="M25.5295 52.2454C25.6732 52.1256 25.7649 51.9519 25.7843 51.7626C25.8036 51.5733 25.7491 51.3838 25.6328 51.2358C25.5164 51.0878 25.3477 50.9935 25.1638 50.9735C24.9799 50.9536 24.7958 51.0097 24.6521 51.1295C24.4136 51.3538 24.1031 51.4797 23.7801 51.4832C23.457 51.4867 23.1441 51.3674 22.9011 51.1483C22.8326 51.0857 22.7528 51.0377 22.6663 51.0069C22.5797 50.9761 22.4881 50.9632 22.3967 50.9688C22.3053 50.9745 22.2159 50.9986 22.1336 51.0398C22.0512 51.081 21.9776 51.1385 21.9168 51.2091C21.856 51.2796 21.8094 51.3617 21.7795 51.4508C21.7496 51.5399 21.737 51.6342 21.7425 51.7283C21.7479 51.8224 21.7714 51.9144 21.8114 51.9992C21.8515 52.084 21.9073 52.1598 21.9758 52.2223C22.4806 52.6669 23.1213 52.9142 23.7855 52.9211C24.4258 52.9133 25.0431 52.6741 25.5295 52.2454Z" fill="white"/>
</svg>