<svg width="102" height="105" viewBox="0 0 102 105" fill="none" xmlns="http://www.w3.org/2000/svg">
    <path d="M101.511 101.379L92.7321 90.4417C95.902 87.8356 98.185 84.3217 99.2694 80.3796C100.354 76.4374 100.187 72.259 98.7914 68.4146C97.3958 64.5701 94.8397 61.2469 91.4718 58.8984C88.1039 56.5499 84.0883 55.2905 79.9729 55.2921C79.6312 55.2921 79.2916 55.3006 78.954 55.3176V22.291C78.9539 22.0092 78.8411 21.739 78.6405 21.5397C78.4398 21.3405 78.1677 21.2285 77.8839 21.2284H49.2745V3.02272C49.2744 2.74091 49.1616 2.47068 48.9609 2.27141C48.7603 2.07214 48.4881 1.96015 48.2043 1.96005H16.1212C16.0605 1.42148 15.8022 0.923972 15.3956 0.562452C14.9891 0.200932 14.4627 0.000712636 13.9169 0H9.2024C8.63008 0.000887337 8.08023 0.221303 7.66769 0.615215C7.25514 1.00913 7.0118 1.54608 6.98848 2.11393C5.02442 2.48914 3.25309 3.53141 1.9784 5.06189C0.703713 6.59237 0.00513908 8.51566 0.00253934 10.5017V54.2391C-0.00197519 54.2884 -0.000466043 54.3381 0.00703395 54.3871C0.0444873 56.0545 0.738106 57.6411 1.93929 58.8069C3.14048 59.9727 4.75368 60.625 6.43331 60.624H29.6843V73.3568L29.6882 73.3535C29.687 73.4048 29.6843 73.4558 29.6843 73.5075C29.6834 74.3461 29.8492 75.1767 30.172 75.9517C30.4948 76.7267 30.9683 77.4308 31.5655 78.0239C32.1627 78.6169 32.8719 79.0871 33.6523 79.4077C34.4327 79.7282 35.2692 79.8928 36.1137 79.892H60.5458C61.262 82.7915 62.6274 85.4933 64.5403 87.7965C66.4533 90.0996 68.8646 91.9448 71.5949 93.1948C74.3251 94.4447 77.3041 95.0673 80.3101 95.0161C83.3162 94.9649 86.2719 94.2413 88.9574 92.8992L97.9963 104.159C98.1801 104.388 98.4075 104.579 98.6657 104.721C98.9238 104.863 99.2076 104.953 99.5007 104.986C99.7939 105.019 100.091 104.994 100.374 104.913C100.658 104.832 100.922 104.697 101.153 104.514C101.384 104.332 101.576 104.106 101.719 103.849C101.862 103.593 101.953 103.311 101.986 103.02C102.019 102.729 101.994 102.434 101.913 102.153C101.831 101.871 101.694 101.608 101.511 101.379ZM9.12435 2.20296C9.12439 2.18239 9.13264 2.16267 9.14729 2.14812C9.16194 2.13358 9.1818 2.12538 9.20251 2.12534H13.9169C13.9376 2.12538 13.9575 2.13358 13.9722 2.14812C13.9868 2.16267 13.995 2.18239 13.9951 2.20296V10.6558L13.4617 9.95069C13.2534 9.67539 12.9846 9.45102 12.6756 9.29472C12.3667 9.13842 12.0258 9.05433 11.6791 9.04888C11.3324 9.04344 10.9891 9.11678 10.6753 9.26329C10.3615 9.40981 10.0857 9.62562 9.86874 9.89424L9.12435 10.8161V2.20296ZM2.14293 10.5017C2.1454 9.08087 2.62178 7.70083 3.49763 6.57724C4.37348 5.45365 5.59947 4.6498 6.98405 4.29127V11.7327C6.98095 12.1069 7.09649 12.4726 7.31429 12.7779C7.53209 13.0832 7.84112 13.3128 8.1976 13.4341C8.39444 13.5032 8.60165 13.5387 8.81043 13.5391C9.0811 13.5386 9.34816 13.4774 9.59161 13.3599C9.83507 13.2424 10.0486 13.0718 10.2162 12.8608L11.5386 11.2238C11.5501 11.2066 11.5661 11.1928 11.5848 11.184C11.6036 11.1752 11.6245 11.1717 11.6452 11.1738C11.6657 11.1737 11.686 11.1785 11.7043 11.1878C11.7226 11.197 11.7384 11.2106 11.7503 11.2271L12.8677 12.7041C13.0966 13.0066 13.4154 13.2299 13.7792 13.3425C14.1429 13.4551 14.5331 13.4513 14.8945 13.3315C15.2559 13.2117 15.5702 12.9821 15.7929 12.6751C16.0156 12.3682 16.1355 11.9994 16.1355 11.6211V4.08537H47.1342V47.854H6.43339C4.84731 47.8528 3.31724 48.4363 2.13954 49.4912L2.14293 49.4847V10.5017ZM0.0432909 53.5314L0.0441257 53.5298L0.0430982 53.5379L0.0432909 53.5314ZM3.40022 57.2524C2.94814 56.8022 2.60349 56.2571 2.39167 55.6571H30.1276C30.4114 55.6571 30.6836 55.5451 30.8843 55.3459C31.085 55.1466 31.1978 54.8763 31.1978 54.5944C31.1978 54.3126 31.085 54.0423 30.8843 53.843C30.6836 53.6437 30.4114 53.5318 30.1276 53.5318H2.20795C2.37685 52.5397 2.89366 51.6389 3.66695 50.9888C4.44024 50.3387 5.42017 49.9811 6.43339 49.9793H43.674C42.6202 51.1516 42.038 52.6683 42.0387 54.2397C42.0393 55.8111 42.6227 57.3273 43.6775 58.4987H6.43339C5.86998 58.5001 5.31187 58.3907 4.79127 58.1768C4.27067 57.9629 3.79791 57.6487 3.40022 57.2524ZM48.2044 60.6241C48.489 60.6224 48.7613 60.509 48.9619 60.3084C49.1624 60.1079 49.2748 59.8367 49.2745 59.5541V54.2389C49.2745 53.957 49.1618 53.6867 48.9611 53.4875C48.7604 53.2882 48.4882 53.1762 48.2044 53.1762C47.9206 53.1762 47.6484 53.2882 47.4477 53.4875C47.247 53.6867 47.1342 53.957 47.1342 54.2389V58.2869C46.1817 57.9774 45.3684 57.3464 44.8356 56.5036C44.3027 55.6607 44.0839 54.6591 44.2172 53.6728C44.3504 52.6864 44.8273 51.7775 45.565 51.104C46.3028 50.4303 47.2548 50.0346 48.2558 49.9853C48.5168 49.972 48.7637 49.8632 48.9487 49.6799L48.9491 49.6802L48.9512 49.6777C48.9958 49.6336 49.0364 49.5858 49.0726 49.5347C49.0772 49.5285 49.0826 49.523 49.0869 49.5165C49.1184 49.4694 49.1461 49.4198 49.1697 49.3684C49.1757 49.3558 49.1835 49.3443 49.189 49.3315C49.2085 49.283 49.2245 49.233 49.2367 49.1822C49.2413 49.1645 49.2487 49.148 49.2524 49.13C49.2665 49.0612 49.2737 48.9912 49.2741 48.921L49.2744 48.9172V48.917V48.9166V48.9162V41.2277H58.6447C59.2368 41.2269 59.8045 40.9928 60.223 40.5768C60.6415 40.1608 60.8767 39.5969 60.877 39.0089V29.379C60.8767 28.791 60.6415 28.2271 60.223 27.8111C59.8045 27.3951 59.2368 27.161 58.6447 27.1601H55.8644C55.5806 27.1601 55.3084 27.2721 55.1077 27.4714C54.907 27.6707 54.7943 27.9409 54.7943 28.2228C54.7943 28.5046 54.907 28.7749 55.1077 28.9742C55.3084 29.1735 55.5806 29.2855 55.8644 29.2855H58.6447C58.6694 29.2858 58.6929 29.2958 58.7102 29.3133C58.7274 29.3308 58.737 29.3545 58.7367 29.379V39.0089C58.737 39.0334 58.7275 39.057 58.7102 39.0746C58.6929 39.0921 58.6694 39.1021 58.6447 39.1024H49.2744V29.2855H51.7893C52.0731 29.2855 52.3453 29.1735 52.546 28.9742C52.7467 28.7749 52.8595 28.5046 52.8595 28.2228C52.8595 27.9409 52.7467 27.6707 52.546 27.4714C52.3453 27.2721 52.0731 27.1601 51.7893 27.1601H49.2744V23.3536H76.8137V55.5408C73.5207 56.0697 70.4126 57.4056 67.7703 59.4275C65.1281 61.4494 63.0352 64.0936 61.6811 67.1208H36.1138C34.5298 67.1196 33.0016 67.7015 31.8246 68.7542V60.6241H48.2044ZM60.1056 72.8465C60.009 72.8168 59.9087 72.801 59.8076 72.7995H31.8889C32.0577 71.8074 32.5744 70.9066 33.3476 70.2563C34.1208 69.6061 35.1006 69.2482 36.1138 69.2461H60.8735C60.5051 70.4198 60.248 71.6252 60.1056 72.8465ZM36.1138 77.7666C35.2263 77.7684 34.3603 77.4957 33.636 76.9865C32.9117 76.4772 32.365 75.7566 32.072 74.9248H59.8075C59.863 74.9236 59.9183 74.9181 59.9728 74.9083C59.9718 74.9907 59.9697 75.0729 59.9697 75.1555C59.9698 76.0286 60.0276 76.9009 60.1427 77.7665L36.1138 77.7666ZM62.11 75.1555C62.11 71.6473 63.1576 68.2178 65.1205 65.3008C67.0833 62.3838 69.8731 60.1102 73.1371 58.7677C76.4011 57.4251 79.9928 57.0739 83.4578 57.7583C86.9229 58.4427 90.1058 60.1321 92.604 62.6128C95.1021 65.0935 96.8034 68.2542 97.4927 71.695C98.1819 75.1359 97.8282 78.7024 96.4762 81.9436C95.1241 85.1848 92.8346 87.9551 89.8971 89.9042C86.9595 91.8533 83.5059 92.8936 79.9729 92.8936C75.237 92.8883 70.6967 91.0178 67.3479 87.6924C63.9991 84.367 62.1154 79.8583 62.11 75.1555Z" fill="white"/>
    <path d="M65.1765 41.227H69.7936C70.3856 41.2263 70.9532 40.9925 71.3719 40.5768C71.7905 40.161 72.026 39.5974 72.0267 39.0095V29.378C72.026 28.7901 71.7905 28.2265 71.3719 27.8108C70.9532 27.395 70.3856 27.1612 69.7936 27.1605H65.1765C64.5844 27.1612 64.0168 27.395 63.5982 27.8108C63.1795 28.2265 62.944 28.7901 62.9434 29.378V39.0095C62.944 39.5974 63.1795 40.161 63.5982 40.5768C64.0168 40.9925 64.5844 41.2263 65.1765 41.227ZM65.0837 29.378C65.0837 29.3536 65.0935 29.3301 65.1109 29.3129C65.1283 29.2956 65.1519 29.2859 65.1765 29.2859H69.7936C69.8182 29.2859 69.8418 29.2956 69.8592 29.3129C69.8766 29.3301 69.8864 29.3536 69.8864 29.378V39.0095C69.8864 39.0339 69.8766 39.0574 69.8592 39.0746C69.8418 39.0919 69.8182 39.1016 69.7936 39.1017H65.1765C65.1519 39.1016 65.1283 39.0919 65.1109 39.0746C65.0935 39.0574 65.0837 39.0339 65.0837 39.0095V29.378Z" fill="white"/>
    <path d="M9.21688 32.0047H28.9645C29.5565 32.004 30.1241 31.7701 30.5428 31.3544C30.9614 30.9387 31.1969 30.3751 31.1976 29.7872V20.1557C31.197 19.5678 30.9615 19.0041 30.5428 18.5883C30.1242 18.1726 29.5566 17.9387 28.9645 17.938H26.1842C25.9004 17.938 25.6282 18.0499 25.4275 18.2492C25.2268 18.4485 25.1141 18.7188 25.1141 19.0007C25.1141 19.2825 25.2268 19.5528 25.4275 19.7521C25.6282 19.9514 25.9004 20.0633 26.1842 20.0633H28.9645C28.9891 20.0634 29.0127 20.0731 29.0301 20.0905C29.0475 20.1078 29.0573 20.1312 29.0573 20.1557V29.7872C29.0573 29.8116 29.0475 29.835 29.0301 29.8523C29.0127 29.8696 28.9891 29.8793 28.9645 29.8793H9.21688C9.19227 29.8793 9.16867 29.8696 9.15127 29.8523C9.13387 29.835 9.12409 29.8116 9.12408 29.7872V20.1557C9.12409 20.1312 9.13386 20.1078 9.15125 20.0905C9.16865 20.0731 9.19225 20.0634 9.21688 20.0633H22.109C22.3929 20.0633 22.6651 19.9514 22.8658 19.7521C23.0664 19.5528 23.1792 19.2825 23.1792 19.0007C23.1792 18.7188 23.0664 18.4485 22.8658 18.2492C22.6651 18.0499 22.3929 17.938 22.109 17.938H9.21688C8.62482 17.9387 8.05722 18.1726 7.6386 18.5884C7.21998 19.0041 6.98453 19.5678 6.98389 20.1557V29.7872C6.98457 30.375 7.22004 30.9387 7.63866 31.3544C8.05728 31.7701 8.62485 32.0039 9.21688 32.0047Z" fill="white"/>
    <path d="M35.497 32.0047H40.1141C40.7061 32.004 41.2737 31.7701 41.6924 31.3544C42.111 30.9387 42.3465 30.3751 42.3472 29.7872V20.1557C42.3465 19.5678 42.1111 19.0041 41.6924 18.5883C41.2738 18.1726 40.7062 17.9387 40.1141 17.938H35.497C34.9049 17.9386 34.3372 18.1725 33.9185 18.5883C33.4998 19.004 33.2643 19.5677 33.2637 20.1557V29.7872C33.2644 30.3751 33.4999 30.9388 33.9186 31.3545C34.3372 31.7702 34.9049 32.004 35.497 32.0047ZM35.404 20.1557C35.404 20.1312 35.4138 20.1078 35.4313 20.0904C35.4487 20.0731 35.4723 20.0634 35.497 20.0633H40.1141C40.1387 20.0634 40.1623 20.0731 40.1797 20.0905C40.1971 20.1078 40.2069 20.1312 40.2069 20.1557V29.7872C40.2069 29.8116 40.1971 29.835 40.1797 29.8523C40.1623 29.8696 40.1387 29.8793 40.1141 29.8793H35.497C35.4723 29.8793 35.4487 29.8696 35.4313 29.8523C35.4139 29.835 35.404 29.8116 35.404 29.7872V20.1557Z" fill="white"/>
    <path d="M93.2185 79.9855C94.2397 77.225 94.3603 74.2154 93.5632 71.3831C92.7661 68.5508 91.0917 66.0393 88.7773 64.2045C86.4629 62.3696 83.6258 61.3044 80.6678 61.1598C77.7099 61.0151 74.7811 61.7984 72.2963 63.3985C69.8116 64.9987 67.8968 67.3346 66.8233 70.0755C65.7499 72.8163 65.5721 75.8231 66.3151 78.6698C67.0582 81.5166 68.6845 84.059 70.9636 85.9369C73.2427 87.8149 76.0591 88.9331 79.0137 89.1332C79.0386 89.1348 79.0633 89.1357 79.0878 89.1357C79.3652 89.1354 79.6317 89.0281 79.831 88.8366C80.0303 88.645 80.1469 88.384 80.1562 88.1088C80.1656 87.8335 80.0669 87.5653 79.881 87.3609C79.6951 87.1564 79.4366 87.0316 79.1598 87.0128C76.654 86.8428 74.2655 85.8942 72.3328 84.3013C70.4 82.7085 69.021 80.5521 68.391 78.1377C67.761 75.7233 67.912 73.1733 68.8226 70.8488C69.7332 68.5244 71.3572 66.5434 73.4646 65.1864C75.572 63.8294 78.056 63.1653 80.5646 63.2881C83.0732 63.4109 85.4794 64.3143 87.4422 65.8705C89.405 67.4267 90.825 69.5567 91.501 71.9588C92.177 74.3609 92.0747 76.9133 91.2086 79.2545C91.111 79.5192 91.1232 79.8115 91.2427 80.0672C91.3621 80.3229 91.5789 80.521 91.8454 80.618C92.112 80.7149 92.4064 80.7028 92.6639 80.5842C92.9214 80.4656 93.1209 80.2502 93.2185 79.9855Z" fill="white"/>
    <path d="M88.837 83.144C88.3942 83.6265 87.9126 84.0724 87.397 84.4773C86.4953 85.1864 85.4957 85.763 84.4287 86.1894C84.2971 86.2406 84.177 86.3171 84.0753 86.4146C83.9736 86.5121 83.8924 86.6286 83.8363 86.7574C83.7803 86.8862 83.7505 87.0248 83.7486 87.1651C83.7468 87.3055 83.773 87.4448 83.8256 87.575C83.8783 87.7052 83.9564 87.8238 84.0555 87.9239C84.1546 88.024 84.2726 88.1036 84.4028 88.1581C84.5331 88.2127 84.6729 88.2411 84.8142 88.2416C84.9555 88.2422 85.0956 88.215 85.2262 88.1616C87.2068 87.3684 88.9819 86.1423 90.4198 84.5744C90.6081 84.3656 90.7056 84.0913 90.6911 83.8114C90.6767 83.5314 90.5515 83.2685 90.3427 83.0798C90.1339 82.8912 89.8585 82.7921 89.5765 82.8041C89.2945 82.8161 89.0287 82.9383 88.837 83.144Z" fill="white"/>
    <path d="M81.1695 76.0898C80.7747 76.3931 80.2893 76.5569 79.7901 76.5552C79.19 76.5545 78.6146 76.3175 78.1902 75.896C77.7658 75.4746 77.5271 74.9032 77.5264 74.3072V72.2582C78.1174 72.0481 78.7351 71.9215 79.3615 71.882C81.6835 71.7383 84.0362 72.8909 86.3562 75.2929C86.4532 75.3947 86.5695 75.4765 86.6985 75.5336C86.8275 75.5906 86.9665 75.6217 87.1077 75.6251C87.2488 75.6286 87.3892 75.6042 87.5208 75.5535C87.6525 75.5028 87.7727 75.4268 87.8746 75.3297C87.9764 75.2327 88.058 75.1166 88.1145 74.9881C88.171 74.8596 88.2013 74.7213 88.2038 74.5812C88.2062 74.441 88.1807 74.3017 88.1287 74.1714C88.0767 74.0411 87.9993 73.9222 87.9008 73.8217C85.1261 70.9488 82.2087 69.5817 79.233 69.7604C74.7347 70.0291 71.8627 73.7603 71.7426 73.9191C71.6567 74.0305 71.594 74.1578 71.5579 74.2935C71.5218 74.4292 71.5132 74.5706 71.5325 74.7096C71.5517 74.8486 71.5985 74.9825 71.6702 75.1034C71.7418 75.2244 71.8369 75.3301 71.9499 75.4143C72.0629 75.4986 72.1915 75.5598 72.3285 75.5945C72.4654 75.6291 72.6079 75.6365 72.7477 75.6161C72.8876 75.5958 73.0219 75.5482 73.1431 75.476C73.2643 75.4038 73.3699 75.3085 73.4538 75.1955C74.014 74.5113 74.6639 73.9045 75.3861 73.3913V74.3073C75.3874 75.4668 75.8518 76.5784 76.6774 77.3983C77.5031 78.2182 78.6225 78.6793 79.7901 78.6807C80.7618 78.6837 81.7067 78.3647 82.4751 77.774C82.6982 77.6015 82.8434 77.3483 82.879 77.0698C82.9147 76.7912 82.8378 76.51 82.6654 76.2875C82.4929 76.0651 82.2388 75.9194 81.9585 75.8824C81.6782 75.8454 81.3946 75.9198 81.1695 76.0898Z" fill="white"/>
</svg>