<svg width="102" height="105" viewBox="0 0 102 105" fill="none" xmlns="http://www.w3.org/2000/svg">
    <path d="M48.4256 61.4725V51.5417C48.4249 50.8587 48.161 50.2039 47.6918 49.7209C47.2227 49.238 46.5866 48.9663 45.9231 48.9656H42.3221C42.0579 48.9656 41.8046 49.0736 41.6178 49.2659C41.431 49.4582 41.326 49.719 41.326 49.991C41.326 50.2629 41.431 50.5237 41.6178 50.716C41.8046 50.9083 42.0579 51.0164 42.3221 51.0164H45.923C46.0583 51.0165 46.188 51.0719 46.2837 51.1704C46.3794 51.2689 46.4332 51.4024 46.4333 51.5417V61.4725C46.4332 61.6117 46.3794 61.7452 46.2837 61.8437C46.188 61.9422 46.0583 61.9976 45.923 61.9978H20.3455C20.2102 61.9976 20.0805 61.9422 19.9848 61.8437C19.8892 61.7452 19.8354 61.6117 19.8352 61.4725V51.5417C19.8354 51.4024 19.8892 51.2689 19.9848 51.1704C20.0805 51.0719 20.2102 51.0165 20.3455 51.0164H37.0439C37.3081 51.0164 37.5614 50.9083 37.7482 50.716C37.935 50.5237 38.04 50.2629 38.04 49.991C38.04 49.719 37.935 49.4582 37.7482 49.2659C37.5614 49.0736 37.3081 48.9656 37.0439 48.9656H20.3455C19.682 48.9663 19.0459 49.238 18.5768 49.7209C18.1077 50.2039 17.8438 50.8587 17.843 51.5417V61.4725C17.8438 62.1554 18.1077 62.8102 18.5768 63.2932C19.0459 63.7761 19.682 64.0478 20.3455 64.0485H45.9232C46.5867 64.0478 47.2227 63.7761 47.6919 63.2931C48.161 62.8102 48.4249 62.1554 48.4256 61.4725Z" fill="white"/>
    <path d="M60.7877 48.9656H53.9599C53.4088 48.9662 52.8805 49.1919 52.4909 49.593C52.1012 49.9941 51.882 50.538 51.8813 51.1053V61.9088C51.882 62.4761 52.1012 63.02 52.4908 63.4211C52.8805 63.8223 53.4088 64.0479 53.9599 64.0486H60.7877C61.3388 64.048 61.8672 63.8223 62.2569 63.4212C62.6466 63.02 62.8658 62.4761 62.8664 61.9088V51.1053C62.8658 50.538 62.6466 49.9941 62.2568 49.5929C61.8671 49.1918 61.3388 48.9662 60.7877 48.9656ZM60.8742 61.9087C60.8742 61.9323 60.865 61.955 60.8488 61.9717C60.8326 61.9883 60.8106 61.9977 60.7877 61.9978H53.9599C53.937 61.9977 53.915 61.9883 53.8988 61.9716C53.8826 61.9549 53.8735 61.9323 53.8735 61.9087V51.1052C53.8736 51.0816 53.8827 51.059 53.8989 51.0424C53.915 51.0257 53.937 51.0163 53.9599 51.0163H60.7877C60.8106 51.0163 60.8326 51.0257 60.8488 51.0423C60.865 51.059 60.8742 51.0816 60.8742 51.1052V61.9087Z" fill="white"/>
    <path d="M61.5984 73.9811H42.8833C42.6191 73.9811 42.3658 74.0891 42.179 74.2814C41.9922 74.4737 41.8872 74.7345 41.8872 75.0065C41.8872 75.2784 41.9922 75.5392 42.179 75.7315C42.3658 75.9238 42.6191 76.0319 42.8833 76.0319H61.5984C61.8626 76.0319 62.1159 75.9238 62.3027 75.7315C62.4895 75.5392 62.5945 75.2784 62.5945 75.0065C62.5945 74.7345 62.4895 74.4737 62.3027 74.2814C62.1159 74.0891 61.8626 73.9811 61.5984 73.9811Z" fill="white"/>
    <path d="M61.5984 68.7426H42.8833C42.6191 68.7426 42.3658 68.8506 42.179 69.0429C41.9922 69.2352 41.8872 69.496 41.8872 69.7679C41.8872 70.0399 41.9922 70.3007 42.179 70.493C42.3658 70.6853 42.6191 70.7933 42.8833 70.7933H61.5984C61.8626 70.7933 62.1159 70.6853 62.3027 70.493C62.4895 70.3007 62.5945 70.0399 62.5945 69.7679C62.5945 69.496 62.4895 69.2352 62.3027 69.0429C62.1159 68.8506 61.8626 68.7426 61.5984 68.7426Z" fill="white"/>
    <path d="M93.1983 25.0237C93.1984 19.1008 90.9297 13.4166 86.8844 9.20467C82.8391 4.99272 77.3436 2.5927 71.5902 2.52538C65.8368 2.45806 60.2897 4.72885 56.1525 8.84506C52.0152 12.9613 49.6216 18.5908 49.4909 24.5123H28.9164V24.4351C28.9156 23.7573 28.6537 23.1075 28.1882 22.6282C27.7226 22.149 27.0914 21.8794 26.433 21.8786H20.3264C19.668 21.8794 19.0368 22.149 18.5712 22.6282C18.1057 23.1075 17.8438 23.7573 17.843 24.4351V24.6555C15.3223 25.0762 13.0289 26.4057 11.3727 28.4067C9.7165 30.4076 8.80534 32.9495 8.802 35.5783V94.3008V94.3043C8.80157 95.3775 9.0066 96.4404 9.40537 97.432C9.80415 98.4236 10.3889 99.3246 11.1261 100.084C11.8633 100.842 12.7386 101.444 13.7019 101.855C14.6652 102.265 15.6976 102.476 16.7402 102.476H70.8432C71.1083 102.474 71.3619 102.364 71.5485 102.17C71.7351 101.976 71.8396 101.714 71.8393 101.441V94.3043C71.8393 94.0323 71.7343 93.7715 71.5475 93.5792C71.3607 93.3869 71.1074 93.2789 70.8432 93.2789C70.579 93.2789 70.3256 93.3869 70.1388 93.5792C69.952 93.7715 69.8471 94.0323 69.8471 94.3043V100.268C68.4489 99.936 67.2147 99.0942 66.3721 97.8985C65.5296 96.7028 65.1355 95.2337 65.2627 93.7624C65.3899 92.291 66.0298 90.9166 67.0642 89.8929C68.0986 88.8691 69.4578 88.2649 70.891 88.1919C71.0297 88.1842 71.1652 88.1465 71.2887 88.0812C71.4122 88.0159 71.5209 87.9245 71.6078 87.8129C71.6133 87.806 71.6183 87.7989 71.6237 87.7919C71.6514 87.7557 71.6768 87.7177 71.6996 87.6781C71.7097 87.6604 71.718 87.6418 71.7271 87.6236C71.7442 87.5903 71.7596 87.5561 71.7732 87.521C71.7835 87.4932 71.7902 87.4639 71.7982 87.4349C71.8062 87.405 71.8161 87.376 71.8215 87.3451C71.8286 87.3007 71.8329 87.2558 71.8343 87.2108C71.8351 87.193 71.8392 87.1761 71.8392 87.1581L71.8388 87.1535V47.517C77.5458 47.3766 82.9735 44.946 86.964 40.7437C90.9545 36.5414 93.1917 30.9002 93.1983 25.0237ZM71.3414 4.5748C75.2703 4.5748 79.1109 5.77411 82.3777 8.02107C85.6444 10.268 88.1905 13.4617 89.694 17.1983C91.1975 20.9348 91.5909 25.0464 90.8244 29.0131C90.0579 32.9798 88.166 36.6235 85.3879 39.4833C82.6097 42.3432 79.0702 44.2907 75.2168 45.0798C71.3635 45.8688 67.3693 45.4638 63.7395 43.9161C60.1097 42.3684 57.0073 39.7474 54.8246 36.3846C52.6418 33.0217 51.4768 29.0682 51.4768 25.0237C51.4827 19.6022 53.5775 14.4045 57.3016 10.5709C61.0256 6.73735 66.0748 4.58094 71.3414 4.5748ZM19.8352 24.4351C19.8354 24.301 19.8872 24.1725 19.9793 24.0777C20.0714 23.9829 20.1962 23.9295 20.3264 23.9294H26.433C26.5632 23.9295 26.6881 23.9829 26.7802 24.0777C26.8722 24.1725 26.924 24.301 26.9242 24.4351L26.9238 36.9872L25.5316 35.079C25.2985 34.7573 24.9965 34.4953 24.6491 34.3131C24.3017 34.1309 23.9182 34.0335 23.5283 34.0285C23.5145 34.0282 23.5007 34.0281 23.4867 34.0281C23.1039 34.027 22.7258 34.115 22.3807 34.2856C22.0356 34.4562 21.7324 34.705 21.4939 35.0132L19.8352 37.1419V24.4351ZM63.2472 94.3043C63.2446 95.3777 63.4487 96.441 63.8474 97.4329C64.2462 98.4247 64.8319 99.3254 65.5707 100.083L65.5715 100.084C65.6859 100.201 65.8034 100.315 65.924 100.425H16.7401C15.4169 100.426 14.1313 99.9715 13.0869 99.1351C12.0425 98.2986 11.2989 97.1275 10.9739 95.807H47.4295C47.6937 95.807 47.9471 95.699 48.1339 95.5067C48.3207 95.3144 48.4256 95.0536 48.4256 94.7816C48.4256 94.5097 48.3207 94.2489 48.1339 94.0566C47.9471 93.8643 47.6937 93.7562 47.4295 93.7562H10.8192C10.9538 92.2348 11.6355 90.8199 12.7308 89.789C13.8262 88.7582 15.256 88.1856 16.7401 88.1836H65.9189C65.0774 88.9504 64.4039 89.8927 63.9433 90.948C63.4826 92.0033 63.2453 93.1474 63.2472 94.3043ZM16.7401 86.1328C15.6152 86.1326 14.5031 86.3792 13.4779 86.856C12.4528 87.3329 11.538 88.0291 10.7947 88.8983L10.7942 88.8946V35.5784C10.7971 33.4936 11.5006 31.474 12.7855 29.8624C14.0703 28.2509 15.8572 27.1466 17.843 26.737V37.2309C17.8397 37.65 17.9646 38.0595 18.2 38.4015C18.4354 38.7435 18.7693 39.0006 19.1545 39.1364C19.3671 39.2138 19.591 39.2536 19.8165 39.2539C20.109 39.2535 20.3975 39.1849 20.6606 39.0534C20.9237 38.9218 21.1544 38.7307 21.3356 38.4944L23.048 36.2962C23.1017 36.2271 23.1701 36.1717 23.2479 36.134C23.3257 36.0964 23.4109 36.0775 23.4968 36.079C23.5829 36.0797 23.6676 36.101 23.7443 36.1412C23.821 36.1814 23.8875 36.2395 23.9386 36.3107L25.3857 38.2938C25.6329 38.6327 25.9774 38.8829 26.3704 39.009C26.7634 39.1352 27.185 39.1309 27.5755 38.9968C27.966 38.8626 28.3056 38.6054 28.5462 38.2616C28.7869 37.9178 28.9164 37.5048 28.9164 37.081V26.5631H49.5367C49.9047 31.983 52.1626 37.0835 55.8947 40.9252C59.6268 44.7669 64.5816 47.0912 69.8466 47.4698V86.128L69.8494 86.1327L16.7401 86.1328Z" fill="white"/>
    <path d="M71.1479 13.3503C71.4121 13.3503 71.6655 13.2423 71.8523 13.05C72.0391 12.8577 72.144 12.5969 72.144 12.3249V9.14941C72.144 8.87746 72.0391 8.61665 71.8523 8.42435C71.6655 8.23206 71.4121 8.12402 71.1479 8.12402C70.8838 8.12402 70.6304 8.23206 70.4436 8.42435C70.2568 8.61665 70.1519 8.87746 70.1519 9.14941V12.3249C70.1519 12.5969 70.2568 12.8577 70.4436 13.05C70.6304 13.2423 70.8838 13.3503 71.1479 13.3503Z" fill="white"/>
    <path d="M80.417 17.2359C80.5479 17.2361 80.6775 17.2096 80.7984 17.1581C80.9193 17.1065 81.0291 17.0309 81.1215 16.9355L83.3026 14.6901C83.4894 14.4977 83.5943 14.2369 83.5942 13.9649C83.5942 13.693 83.4892 13.4322 83.3024 13.2399C83.1155 13.0476 82.8622 12.9397 82.598 12.9397C82.3338 12.9397 82.0804 13.0478 81.8937 13.2401L79.7126 15.4855C79.5733 15.6289 79.4784 15.8117 79.44 16.0106C79.4016 16.2095 79.4213 16.4156 79.4967 16.603C79.5721 16.7903 79.6998 16.9505 79.8636 17.0631C80.0275 17.1758 80.22 17.2359 80.417 17.2359Z" fill="white"/>
    <path d="M83.1428 25.537C83.1428 25.8089 83.2478 26.0697 83.4346 26.262C83.6214 26.4543 83.8747 26.5624 84.1389 26.5624H87.2235C87.4877 26.5624 87.741 26.4543 87.9278 26.262C88.1146 26.0697 88.2196 25.8089 88.2196 25.537C88.2196 25.265 88.1146 25.0042 87.9278 24.8119C87.741 24.6196 87.4877 24.5116 87.2235 24.5116H84.1389C83.8747 24.5116 83.6214 24.6196 83.4346 24.8119C83.2478 25.0042 83.1428 25.265 83.1428 25.537Z" fill="white"/>
    <path d="M81.8409 37.8115C81.9334 37.9067 82.0432 37.9822 82.164 38.0338C82.2849 38.0853 82.4144 38.1119 82.5452 38.1119C82.676 38.1119 82.8055 38.0854 82.9264 38.0339C83.0473 37.9824 83.1571 37.9069 83.2496 37.8117C83.3421 37.7165 83.4155 37.6035 83.4656 37.4791C83.5157 37.3547 83.5414 37.2213 83.5415 37.0867C83.5415 36.952 83.5157 36.8187 83.4657 36.6943C83.4157 36.5698 83.3423 36.4568 83.2498 36.3616L81.0687 34.1161C80.9762 34.0209 80.8664 33.9453 80.7456 33.8938C80.6247 33.8422 80.4952 33.8157 80.3644 33.8157C80.1002 33.8156 79.8469 33.9236 79.66 34.1159C79.4732 34.3082 79.3682 34.569 79.3682 34.8409C79.3681 35.1129 79.473 35.3737 79.6598 35.566L81.8409 37.8115Z" fill="white"/>
    <path d="M71.3042 37.647C71.04 37.647 70.7867 37.755 70.5999 37.9473C70.4131 38.1396 70.3081 38.4004 70.3081 38.6724V41.8477C70.3081 42.1196 70.4131 42.3804 70.5999 42.5727C70.7867 42.765 71.04 42.8731 71.3042 42.8731C71.5684 42.8731 71.8217 42.765 72.0085 42.5727C72.1953 42.3804 72.3003 42.1196 72.3003 41.8477V38.6724C72.3003 38.4004 72.1953 38.1396 72.0085 37.9473C71.8217 37.755 71.5684 37.647 71.3042 37.647Z" fill="white"/>
    <path d="M61.5615 34.0618L59.3804 36.307C59.2864 36.4019 59.2116 36.515 59.1603 36.6398C59.109 36.7646 59.0822 36.8986 59.0816 37.0341C59.0809 37.1697 59.1063 37.304 59.1564 37.4293C59.2065 37.5546 59.2802 37.6685 59.3733 37.7643C59.4663 37.8601 59.577 37.936 59.6987 37.9876C59.8205 38.0391 59.9509 38.0653 60.0826 38.0646C60.2142 38.0639 60.3444 38.0364 60.4656 37.9836C60.5869 37.9308 60.6968 37.8537 60.7889 37.7569L62.97 35.5117C63.064 35.4169 63.1388 35.3038 63.1901 35.179C63.2414 35.0542 63.2682 34.9201 63.2689 34.7846C63.2695 34.6491 63.2441 34.5148 63.194 34.3895C63.1439 34.2641 63.0702 34.1503 62.9771 34.0544C62.8841 33.9586 62.7734 33.8828 62.6517 33.8312C62.5299 33.7797 62.3995 33.7535 62.2678 33.7542C62.1362 33.7548 62.006 33.7824 61.8848 33.8352C61.7635 33.888 61.6536 33.965 61.5615 34.0618Z" fill="white"/>
    <path d="M59.5401 25.4601C59.5401 25.1881 59.4352 24.9273 59.2484 24.735C59.0616 24.5427 58.8082 24.4347 58.5441 24.4347H55.4595C55.1953 24.4347 54.9419 24.5427 54.7551 24.735C54.5683 24.9273 54.4634 25.1881 54.4634 25.4601C54.4634 25.732 54.5683 25.9928 54.7551 26.1851C54.9419 26.3774 55.1953 26.4855 55.4595 26.4855H58.5441C58.8082 26.4855 59.0616 26.3774 59.2484 26.1851C59.4352 25.9928 59.5401 25.732 59.5401 25.4601Z" fill="white"/>
    <path d="M61.6143 16.8811C61.8018 17.0701 62.0541 17.1754 62.3165 17.1741C62.5789 17.1727 62.8302 17.0648 63.0157 16.8738C63.2013 16.6828 63.3061 16.4241 63.3075 16.154C63.3088 15.8838 63.2065 15.6241 63.0228 15.4312L60.8418 13.1858C60.6544 12.9968 60.4021 12.8915 60.1396 12.8928C59.8772 12.8942 59.626 13.0021 59.4404 13.1931C59.2549 13.3841 59.15 13.6428 59.1487 13.9129C59.1474 14.1831 59.2497 14.4428 59.4333 14.6357L61.6143 16.8811Z" fill="white"/>
    <path d="M71.1479 26.5235H77.4084C77.6725 26.5235 77.9259 26.4154 78.1127 26.2231C78.2995 26.0308 78.4045 25.77 78.4045 25.4981C78.4045 25.2261 78.2995 24.9653 78.1127 24.773C77.9259 24.5807 77.6725 24.4727 77.4084 24.4727H72.144V16.7362C72.144 16.4643 72.0391 16.2034 71.8523 16.0111C71.6655 15.8188 71.4121 15.7108 71.1479 15.7108C70.8838 15.7108 70.6304 15.8188 70.4436 16.0111C70.2568 16.2034 70.1519 16.4643 70.1519 16.7362V25.4981C70.1519 25.77 70.2568 26.0308 70.4436 26.2231C70.6304 26.4154 70.8838 26.5235 71.1479 26.5235Z" fill="white"/>
</svg> 