<svg width="102" height="105" viewBox="0 0 102 105" fill="none" xmlns="http://www.w3.org/2000/svg">
    <path d="M51.0009 74.7625C50.3005 74.7625 49.6159 74.9733 49.0336 75.3682C48.4513 75.7631 47.9975 76.3245 47.7295 76.9812C47.4615 77.6379 47.3914 78.3606 47.528 79.0578C47.6646 79.755 48.0019 80.3954 48.4971 80.898C48.9923 81.4007 49.6232 81.743 50.3101 81.8817C50.997 82.0204 51.709 81.9492 52.356 81.6771C53.003 81.4051 53.556 80.9444 53.9451 80.3534C54.3342 79.7624 54.5419 79.0675 54.5419 78.3566C54.5408 77.4037 54.1674 76.4901 53.5036 75.8163C52.8397 75.1425 51.9397 74.7635 51.0009 74.7625ZM51.0009 79.8016C50.7193 79.8016 50.4441 79.7168 50.21 79.558C49.9759 79.3992 49.7934 79.1736 49.6857 78.9095C49.5779 78.6455 49.5498 78.355 49.6047 78.0747C49.6596 77.7944 49.7952 77.5369 49.9943 77.3349C50.1934 77.1328 50.447 76.9951 50.7232 76.9394C50.9993 76.8836 51.2855 76.9122 51.5457 77.0216C51.8058 77.131 52.0281 77.3161 52.1846 77.5538C52.341 77.7914 52.4245 78.0707 52.4245 78.3565C52.4241 78.7396 52.274 79.1069 52.0071 79.3778C51.7402 79.6487 51.3783 79.8011 51.0009 79.8016Z" fill="white"/>
    <path d="M95.3239 17.7094H87.7438V12.1882C87.7413 11.1738 87.3761 10.1947 86.716 9.43294C86.0559 8.67121 85.1458 8.17865 84.1548 8.04678C83.5535 7.96726 82.8632 7.88559 82.0967 7.80608V7.42782C82.0992 6.75004 81.8641 6.09345 81.4336 5.57535C81.003 5.05724 80.4051 4.71137 79.7465 4.59952C76.6607 4.07085 73.5346 3.822 70.4053 3.85591V2.64133C70.4045 1.94104 70.1301 1.26967 69.6423 0.774494C69.1544 0.279319 68.493 0.000785 67.8031 0H63.0058C61.1329 0.00211612 59.3373 0.758228 58.013 2.10245C56.6887 3.44667 55.9438 5.26921 55.9417 7.17022V7.54123L55.9409 7.54173C54.5024 8.46702 53.2246 9.62747 52.1593 10.9761C51.9653 11.2262 51.718 11.4284 51.436 11.5677C51.154 11.7069 50.8446 11.7794 50.531 11.7799C50.2192 11.7801 49.9114 11.7081 49.6311 11.5693C49.3472 11.4301 49.0981 11.2273 48.9027 10.9761C45.8241 7.06031 40.8568 4.73062 34.1383 4.05363C28.847 3.52064 23.8331 4.16539 21.3155 4.59952C20.6569 4.71137 20.059 5.05724 19.6284 5.57535C19.1979 6.09345 18.9628 6.75004 18.9653 7.42782V7.80608C18.1988 7.88559 17.5085 7.96726 16.9072 8.04678C15.9162 8.17865 15.0061 8.67121 14.346 9.43294C13.6859 10.1947 13.3207 11.1738 13.3182 12.1882V17.7094H6.67606C4.90642 17.7114 3.20978 18.4257 1.95826 19.6956C0.706731 20.9655 0.00249381 22.6874 0 24.4836V79.9278C0.00241437 81.7243 0.706558 83.4464 1.95804 84.7167C3.20952 85.987 4.9062 86.7017 6.67606 86.7041H42.9953L40.8186 102.851H35.6544C35.3736 102.851 35.1043 102.964 34.9058 103.166C34.7072 103.367 34.5957 103.64 34.5957 103.925C34.5957 104.21 34.7072 104.484 34.9058 104.685C35.1043 104.887 35.3736 105 35.6544 105H66.7543C67.0351 105 67.3043 104.887 67.5029 104.685C67.7014 104.484 67.813 104.21 67.813 103.925C67.813 103.64 67.7014 103.367 67.5029 103.166C67.3043 102.964 67.0351 102.851 66.7543 102.851H61.59L59.4134 86.7041H95.3239C97.0939 86.7021 98.7908 85.9875 100.042 84.7171C101.294 83.4467 101.998 81.7244 102 79.9278V24.4836C101.998 22.6873 101.294 20.9652 100.042 19.6952C98.7905 18.4252 97.0937 17.711 95.3239 17.7094ZM21.0826 7.42782C21.0815 7.25816 21.1399 7.09362 21.2473 6.96367C21.3548 6.83372 21.5043 6.74684 21.6692 6.7186C26.0458 5.96639 40.825 4.14819 47.247 12.3172C47.8115 13.0407 48.5926 13.5582 49.4723 13.7915V44.7825C49.4723 45.0675 49.5839 45.3408 49.7824 45.5423C49.9809 45.7439 50.2502 45.8571 50.531 45.8571C50.8118 45.8571 51.0811 45.7439 51.2796 45.5423C51.4781 45.3408 51.5897 45.0675 51.5897 44.7825V13.7894C52.4691 13.5565 53.2501 13.0398 53.815 12.3172C54.4401 11.5243 55.1535 10.8074 55.9409 10.1809L55.9417 10.1803V17.6307C55.9397 18.0792 56.081 18.5162 56.3444 18.8763C56.6078 19.2363 56.9791 19.5 57.4026 19.6278C57.5976 19.6879 57.8002 19.7185 58.004 19.7186C58.342 19.7184 58.6747 19.6331 58.9722 19.4703C59.2697 19.3075 59.5227 19.0722 59.7086 18.7857L61.0222 16.78L62.3358 18.7857C62.5801 19.1588 62.9363 19.4421 63.3516 19.5937C63.7669 19.7454 64.2193 19.7573 64.6418 19.6278C65.0643 19.4983 65.4345 19.2341 65.6976 18.8745C65.9607 18.5148 66.1028 18.0787 66.1028 17.6307V12.4028C66.1028 12.1178 65.9913 11.8445 65.7927 11.643C65.5942 11.4415 65.3249 11.3283 65.0441 11.3283C64.7633 11.3283 64.4941 11.4415 64.2955 11.643C64.097 11.8445 63.9854 12.1178 63.9854 12.4028V17.4221L61.9039 14.244C61.8073 14.0965 61.6763 13.9755 61.5224 13.8918C61.3686 13.8081 61.1968 13.7643 61.0223 13.7643C60.8477 13.7643 60.6759 13.8081 60.5221 13.8918C60.3682 13.9755 60.2372 14.0965 60.1406 14.244L58.059 17.4222V7.17022C58.059 7.15387 58.0601 7.13777 58.0602 7.12146C58.0611 7.0171 58.0658 6.91348 58.0731 6.81052C58.0757 6.77329 58.078 6.73603 58.0815 6.69904C58.0929 6.57695 58.1078 6.45584 58.1285 6.33658C58.324 5.16669 58.9208 4.10466 59.8134 3.33834C60.706 2.57203 61.8368 2.1508 63.0058 2.14917H67.8031C67.9316 2.14931 68.0549 2.20121 68.1458 2.29348C68.2367 2.38575 68.2878 2.51084 68.288 2.64133V3.94183H68.2873C67.8363 3.96977 67.3818 4.00702 66.9237 4.05359C66.6463 4.08153 66.3732 4.11161 66.1022 4.14815C65.3738 4.23625 64.668 4.34586 63.9848 4.47697V6.67127L63.9857 6.67112V8.60649C63.9857 8.89149 64.0972 9.16481 64.2957 9.36633C64.4943 9.56786 64.7636 9.68107 65.0443 9.68107C65.3251 9.68107 65.5944 9.56786 65.7929 9.36633C65.9915 9.16481 66.103 8.89149 66.103 8.60649V6.3144C71.5973 5.59033 77.0216 6.31023 79.3929 6.71855C79.5577 6.74679 79.7072 6.83367 79.8147 6.96362C79.9222 7.09357 79.9806 7.25812 79.9794 7.42778V45.1757C79.9797 45.2752 79.9595 45.3736 79.9201 45.4646C79.8808 45.5557 79.823 45.6374 79.7507 45.7044C79.677 45.7724 79.5902 45.8242 79.4958 45.8564C79.4015 45.8885 79.3015 45.9005 79.2023 45.8914C63.5041 44.4708 55.3459 49.386 51.8819 52.4421C51.7907 52.522 51.6929 52.5939 51.5897 52.657V48.7111C51.5897 48.4261 51.4782 48.1528 51.2796 47.9513C51.0811 47.7498 50.8118 47.6365 50.531 47.6365C50.2502 47.6365 49.981 47.7498 49.7824 47.9513C49.5839 48.1528 49.4723 48.4261 49.4723 48.7111V52.657C49.3691 52.5939 49.2714 52.522 49.1801 52.4421C46.1375 49.7578 39.4762 45.64 27.2654 45.64C25.5715 45.64 23.7717 45.7195 21.8597 45.8914C21.7614 45.901 21.6622 45.8897 21.5684 45.8581C21.4746 45.8266 21.3884 45.7754 21.3152 45.708C21.2421 45.6407 21.1836 45.5585 21.1435 45.4668C21.1035 45.3752 21.0828 45.276 21.0827 45.1757L21.0826 7.42782ZM15.4356 12.1882C15.4373 11.6956 15.6152 11.2204 15.9361 10.8508C16.2569 10.4812 16.6991 10.2424 17.1803 10.1788C17.7076 10.11 18.3068 10.0369 18.9653 9.96814V45.1758C18.9653 45.5744 19.0471 45.9687 19.2057 46.3335C19.3642 46.6982 19.5959 47.0254 19.886 47.2942C20.1761 47.5629 20.5182 47.7673 20.8905 47.8944C21.2627 48.0214 21.657 48.0683 22.0482 48.032C36.9671 46.6824 44.5812 51.2321 47.7911 54.0647C48.5528 54.7317 49.5251 55.0985 50.531 55.0985C51.5369 55.0985 52.5093 54.7317 53.2709 54.0647C56.4808 51.2321 64.0949 46.6802 79.0138 48.032C79.405 48.0683 79.7993 48.0214 80.1715 47.8944C80.5438 47.7673 80.8859 47.5629 81.176 47.2942C81.4661 47.0254 81.6978 46.6982 81.8563 46.3335C82.0149 45.9687 82.0967 45.5744 82.0967 45.1758V9.96816C82.7552 10.0369 83.3545 10.11 83.8817 10.1788C84.3629 10.2424 84.8051 10.4812 85.126 10.8508C85.4468 11.2204 85.6247 11.6956 85.6264 12.1882V49.0873C85.6262 49.364 85.5702 49.6376 85.4618 49.8915C85.3534 50.1453 85.1949 50.3739 84.9961 50.5632C84.7973 50.7525 84.5625 50.8984 84.306 50.9921C84.0495 51.0857 83.7768 51.125 83.5048 51.1075C67.7685 50.0673 58.8565 54.0777 54.1496 57.6259C53.1054 58.4201 51.8358 58.8493 50.531 58.8493C49.2262 58.8493 47.9566 58.4201 46.9124 57.6259C42.7222 54.4667 35.1949 50.9399 22.4886 50.9399C20.9238 50.9399 19.2801 50.9958 17.5572 51.1075C17.2852 51.125 17.0125 51.0857 16.756 50.9921C16.4996 50.8984 16.2647 50.7525 16.0659 50.5632C15.8671 50.3739 15.7086 50.1453 15.6002 49.8915C15.4918 49.6376 15.4358 49.364 15.4356 49.0873V12.1882ZM2.11737 24.4836C2.11894 23.2571 2.59981 22.0813 3.45445 21.2142C4.30909 20.3472 5.4677 19.8596 6.67606 19.8586H13.3182V27.0454H2.11737V24.4836ZM59.4536 102.851H42.9551L45.1317 86.7041H57.2769L59.4536 102.851ZM99.8826 69.9879H89.4059C89.1251 69.9879 88.8558 70.1011 88.6573 70.3027C88.4587 70.5042 88.3472 70.7775 88.3472 71.0625C88.3472 71.3475 88.4587 71.6208 88.6573 71.8223C88.8558 72.0239 89.1251 72.1371 89.4059 72.1371H99.8826V79.9278C99.8815 81.1547 99.4009 82.3309 98.5462 83.1985C97.6915 84.066 96.5326 84.5538 95.3239 84.555H6.67606C5.46748 84.5535 4.30882 84.0655 3.45423 83.198C2.59963 82.3306 2.11886 81.1545 2.11737 79.9278V72.1371H84.6651C84.9459 72.1371 85.2152 72.0239 85.4137 71.8223C85.6123 71.6208 85.7238 71.3475 85.7238 71.0625C85.7238 70.7775 85.6123 70.5042 85.4137 70.3027C85.2152 70.1011 84.9459 69.9879 84.6651 69.9879H2.11737V29.1946H13.3182V49.0873C13.3182 49.658 13.4335 50.2227 13.657 50.7464C13.8805 51.2701 14.2075 51.7418 14.6176 52.1321C15.0278 52.5225 15.5126 52.8233 16.0418 53.016C16.5711 53.2087 17.1337 53.2891 17.6949 53.2524C32.7875 52.2551 41.2294 56.0183 45.6505 59.3517C47.0592 60.4218 48.7715 61.0001 50.531 61.0001C52.2906 61.0001 54.0028 60.4218 55.4115 59.3517C59.8326 56.0183 68.2746 52.2551 83.3672 53.2524C83.9283 53.2891 84.4909 53.2087 85.0202 53.016C85.5495 52.8233 86.0342 52.5225 86.4444 52.1321C86.8546 51.7418 87.1815 51.2701 87.405 50.7464C87.6285 50.2227 87.7438 49.658 87.7438 49.0873V29.1946H99.8826V69.9879ZM99.8826 27.0454H87.7438V19.8586H95.3239C96.5324 19.8593 97.6912 20.3467 98.546 21.2138C99.4007 22.081 99.8814 23.257 99.8826 24.4836V27.0454Z" fill="white"/>
    <path d="M58.4695 28.0368C58.7134 28.037 58.95 27.9517 59.1391 27.7952C59.3368 27.6322 64.083 23.8268 72.989 26.2033C73.1234 26.2392 73.2635 26.2478 73.4013 26.2287C73.539 26.2096 73.6717 26.1632 73.7918 26.092C73.9119 26.0209 74.017 25.9264 74.1011 25.8141C74.1852 25.7017 74.2467 25.5736 74.282 25.4371C74.3174 25.3007 74.3259 25.1584 74.307 25.0186C74.2882 24.8788 74.2425 24.7441 74.1724 24.6222C74.1023 24.5003 74.0093 24.3937 73.8985 24.3083C73.7878 24.2229 73.6617 24.1605 73.5272 24.1247C63.5093 21.4517 58.0201 25.9452 57.7913 26.1377C57.6241 26.279 57.5038 26.4692 57.447 26.6823C57.3901 26.8955 57.3993 27.1213 57.4735 27.3289C57.5476 27.5366 57.683 27.716 57.8613 27.8426C58.0395 27.9693 58.2519 28.0371 58.4695 28.0368Z" fill="white"/>
    <path d="M58.4694 34.4415C58.7134 34.4417 58.95 34.3564 59.1391 34.1999C59.3368 34.037 64.083 30.2316 72.9889 32.608C73.2605 32.6804 73.5493 32.6404 73.7918 32.4967C74.0343 32.3531 74.2106 32.1175 74.282 31.8418C74.3534 31.5662 74.314 31.2731 74.1724 31.0269C74.0308 30.7808 73.7987 30.6018 73.5272 30.5293C63.5093 27.8566 58.0201 32.3499 57.7913 32.5424C57.6241 32.6837 57.5038 32.8739 57.4469 33.087C57.3901 33.3002 57.3993 33.526 57.4735 33.7336C57.5476 33.9413 57.683 34.1206 57.8613 34.2473C58.0395 34.374 58.2519 34.4418 58.4694 34.4415Z" fill="white"/>
    <path d="M58.4694 40.8463C58.7134 40.8465 58.95 40.7612 59.1391 40.6047C59.3368 40.4417 64.083 36.6365 72.9889 39.0128C73.2605 39.0852 73.5493 39.0452 73.7918 38.9015C74.0343 38.7578 74.2106 38.5222 74.282 38.2466C74.3534 37.9709 74.314 37.6778 74.1724 37.4317C74.0308 37.1855 73.7987 37.0066 73.5272 36.9341C63.5093 34.2612 58.0201 38.7546 57.7913 38.9472C57.6241 39.0884 57.5038 39.2786 57.4469 39.4918C57.3901 39.705 57.3993 39.9308 57.4735 40.1384C57.5476 40.346 57.683 40.5254 57.8613 40.6521C58.0395 40.7788 58.2519 40.8466 58.4694 40.8463Z" fill="white"/>
    <path d="M26.5441 25.4372C26.6155 25.7128 26.7918 25.9484 27.0343 26.092C27.2768 26.2357 27.5656 26.2758 27.8371 26.2034C36.7312 23.8304 41.4766 27.622 41.6861 27.7947C41.9026 27.9762 42.1812 28.063 42.4608 28.036C42.7403 28.009 42.9978 27.8704 43.1766 27.6507C43.3554 27.431 43.441 27.1481 43.4144 26.8644C43.3877 26.5807 43.2512 26.3193 43.0347 26.1378C42.806 25.9454 37.3172 21.4522 27.2989 24.1248C27.1644 24.1606 27.0382 24.223 26.9275 24.3084C26.8168 24.3938 26.7238 24.5004 26.6537 24.6223C26.5836 24.7442 26.5378 24.8789 26.519 25.0187C26.5002 25.1585 26.5087 25.3008 26.5441 25.4372Z" fill="white"/>
    <path d="M27.2989 30.5293C27.0273 30.6018 26.7952 30.7808 26.6537 31.0269C26.5121 31.273 26.4727 31.5662 26.5441 31.8418C26.6154 32.1175 26.7918 32.353 27.0343 32.4967C27.2768 32.6404 27.5656 32.6804 27.8371 32.608C36.7312 30.235 41.4766 34.0266 41.6862 34.1993C41.9026 34.3808 42.1813 34.4676 42.4608 34.4406C42.7403 34.4136 42.9978 34.275 43.1766 34.0553C43.3555 33.8355 43.441 33.5527 43.4144 33.269C43.3878 32.9853 43.2512 32.7239 43.0347 32.5424C42.806 32.35 37.3172 27.8566 27.2989 30.5293Z" fill="white"/>
    <path d="M27.2989 36.9341C27.0273 37.0066 26.7952 37.1855 26.6537 37.4317C26.5121 37.6778 26.4727 37.971 26.5441 38.2466C26.6154 38.5223 26.7918 38.7578 27.0343 38.9015C27.2768 39.0452 27.5656 39.0852 27.8371 39.0128C36.7312 36.6397 41.4766 40.4314 41.6862 40.6041C41.7933 40.694 41.9169 40.7615 42.0498 40.8029C42.1828 40.8443 42.3224 40.8588 42.4608 40.8454C42.5992 40.832 42.7337 40.7911 42.8565 40.725C42.9793 40.6588 43.0881 40.5688 43.1767 40.46C43.2652 40.3512 43.3318 40.2258 43.3726 40.0908C43.4134 39.9559 43.4276 39.8142 43.4144 39.6737C43.4012 39.5332 43.3609 39.3967 43.2958 39.2721C43.2306 39.1474 43.1419 39.037 43.0347 38.9471C42.806 38.7547 37.3172 34.2617 27.2989 36.9341Z" fill="white"/>
</svg>