<svg width="102" height="105" viewBox="0 0 102 105" fill="none" xmlns="http://www.w3.org/2000/svg">
    <path d="M41.862 55.9876H40.0324L39.4673 54.1965C39.3664 53.8768 39.1697 53.598 38.9055 53.4004C38.6413 53.2029 38.3231 53.0964 37.9966 53.0964C37.67 53.0964 37.3519 53.2029 37.0877 53.4004C36.8235 53.598 36.6268 53.8766 36.5259 54.1963L35.9603 55.9876H34.131C33.8044 55.9876 33.4862 56.094 33.222 56.2916C32.9577 56.4892 32.7611 56.7679 32.6602 57.0876C32.5592 57.4073 32.5592 57.7518 32.6602 58.0715C32.7611 58.3912 32.9578 58.6699 33.222 58.8675L34.702 59.9742L34.1366 61.7654C34.0357 62.0852 34.0357 62.4296 34.1367 62.7493C34.2376 63.069 34.4343 63.3477 34.6985 63.5453C34.9627 63.7429 35.281 63.8493 35.6075 63.8493C35.9341 63.8493 36.2523 63.7428 36.5165 63.5452L37.9965 62.4383L39.4767 63.5452C39.7395 63.7463 40.0582 63.8548 40.3856 63.8548C40.713 63.8548 41.0318 63.7463 41.2946 63.5452C41.5616 63.3501 41.7604 63.0716 41.8615 62.751C41.9627 62.4304 41.9608 62.0848 41.8562 61.7654L41.2908 59.9744L42.7712 58.8673C43.0354 58.6697 43.232 58.391 43.3329 58.0713C43.4338 57.7516 43.4338 57.4072 43.3328 57.0875C43.2319 56.7677 43.0352 56.4891 42.771 56.2915C42.5068 56.094 42.1886 55.9876 41.862 55.9876ZM40.3262 58.6678C40.0616 58.8651 39.8647 59.1437 39.7637 59.4635C39.6628 59.7834 39.6631 60.1279 39.7646 60.4476L40.2953 62.1297L38.9054 61.0901C38.6414 60.892 38.3231 60.7853 37.9964 60.7853C37.6697 60.7853 37.3514 60.892 37.0874 61.0901L35.6975 62.1297L36.2282 60.4478C36.3298 60.1281 36.3302 59.7835 36.2292 59.4636C36.1283 59.1436 35.9313 58.865 35.6666 58.6677L34.2765 57.6281H35.9948C36.3215 57.6287 36.6399 57.5225 36.9042 57.3248C37.1684 57.1272 37.3649 56.8482 37.4654 56.5282L37.9965 54.8462L38.5274 56.5285C38.6279 56.8484 38.8245 57.1273 39.0888 57.325C39.3531 57.5226 39.6715 57.6287 39.9982 57.6281H41.7164L40.3262 58.6678Z" fill="white"/>
    <path d="M55.6717 55.9876H53.8422L53.277 54.1965L53.2768 54.1961C53.1758 53.8764 52.9791 53.5979 52.7149 53.4003C52.4506 53.2028 52.1324 53.0964 51.8059 53.0964C51.4793 53.0965 51.1611 53.2029 50.897 53.4006C50.6328 53.5982 50.4361 53.8768 50.3352 54.1965L49.7701 55.9876H47.9405C47.6139 55.9875 47.2957 56.094 47.0315 56.2916C46.7672 56.4892 46.5706 56.7679 46.4697 57.0876C46.3688 57.4074 46.3688 57.7518 46.4698 58.0716C46.5708 58.3913 46.7675 58.6699 47.0318 58.8675L48.5117 59.9742L47.9466 61.7652C47.8418 62.0846 47.8399 62.4303 47.941 62.7509C48.0422 63.0715 48.241 63.3501 48.508 63.5453C48.7708 63.7464 49.0895 63.8551 49.4169 63.8551C49.7444 63.8551 50.0631 63.7464 50.3259 63.5453L51.8061 62.4384L53.2863 63.5451C53.5505 63.7427 53.8686 63.8492 54.1952 63.8492C54.5218 63.8492 54.84 63.7428 55.1042 63.5452C55.3684 63.3477 55.5651 63.069 55.666 62.7493C55.7669 62.4296 55.7669 62.0852 55.666 61.7655L55.1006 59.9744L56.5806 58.8675C56.8449 58.67 57.0416 58.3914 57.1426 58.0716C57.2435 57.7519 57.2436 57.4075 57.1427 57.0877C57.0418 56.7679 56.8451 56.4893 56.5809 56.2917C56.3167 56.094 55.9983 55.9875 55.6717 55.9876ZM54.1361 58.6678C53.8714 58.8649 53.6743 59.1435 53.5733 59.4634C53.4723 59.7833 53.4727 60.1279 53.5743 60.4476L54.1051 62.1297L52.7152 61.0901C52.4513 60.8919 52.133 60.7851 51.8063 60.7851C51.4796 60.7851 51.1613 60.8919 50.8973 61.0901L49.5073 62.1295L50.038 60.4479C50.1396 60.1282 50.14 59.7835 50.039 59.4636C49.9381 59.1437 49.7411 58.865 49.4764 58.6678L48.0863 57.6282H49.8045C50.1313 57.6287 50.4497 57.5225 50.7141 57.3248C50.9784 57.1271 51.1749 56.8481 51.2754 56.5281L51.8063 54.846L52.3372 56.5285C52.4377 56.8484 52.6342 57.1273 52.8985 57.3249C53.1628 57.5226 53.4812 57.6287 53.8078 57.6282H55.5261L54.1361 58.6678Z" fill="white"/>
    <path d="M69.4806 55.9876H67.6513L67.0857 54.1963H67.0859C66.985 53.8766 66.7883 53.598 66.5241 53.4004C66.2599 53.2028 65.9416 53.0964 65.6151 53.0964C65.2885 53.0965 64.9703 53.2029 64.7061 53.4005C64.4419 53.5981 64.2452 53.8768 64.1443 54.1965L63.5792 55.9876H61.7496C61.423 55.9875 61.1048 56.094 60.8406 56.2916C60.5764 56.4892 60.3797 56.7678 60.2788 57.0876C60.1779 57.4073 60.1779 57.7518 60.2788 58.0715C60.3798 58.3912 60.5765 58.6699 60.8407 58.8675L62.3209 59.9744L61.7553 61.7654C61.6545 62.0851 61.6545 62.4295 61.7554 62.7492C61.8564 63.0689 62.053 63.3475 62.3172 63.5451C62.5814 63.7426 62.8996 63.8491 63.2261 63.8491C63.5527 63.8491 63.8708 63.7427 64.1351 63.5452L65.6153 62.4383L67.0955 63.545C67.3582 63.7461 67.677 63.8548 68.0045 63.8548C68.3319 63.8549 68.6507 63.7463 68.9135 63.5452C69.1805 63.3501 69.3793 63.0716 69.4804 62.7511C69.5816 62.4305 69.5798 62.085 69.4752 61.7656L68.9098 59.9742L70.39 58.8673C70.6542 58.6697 70.8508 58.391 70.9517 58.0713C71.0526 57.7516 71.0526 57.4072 70.9517 57.0874C70.8507 56.7677 70.6541 56.4891 70.3899 56.2915C70.1256 56.0939 69.8074 55.9875 69.4809 55.9876H69.4806ZM67.9449 58.6678C67.6803 58.865 67.4833 59.1436 67.3824 59.4634C67.2815 59.7832 67.2817 60.1278 67.3832 60.4474L67.9139 62.1295L66.5243 61.0901C66.2603 60.892 65.942 60.7853 65.6153 60.7853C65.2887 60.7853 64.9704 60.892 64.7064 61.0901L63.3162 62.1297L63.8471 60.4478C63.9487 60.1281 63.9491 59.7834 63.8482 59.4635C63.7472 59.1436 63.5502 58.8649 63.2854 58.6677L61.8953 57.6281H63.6136C63.9403 57.6287 64.2588 57.5224 64.5231 57.3247C64.7874 57.127 64.984 56.8481 65.0844 56.528L65.6151 54.8461L66.1463 56.5284C66.2467 56.8484 66.4432 57.1273 66.7075 57.3249C66.9718 57.5225 67.2902 57.6287 67.6168 57.6281H69.3351L67.9449 58.6678Z" fill="white"/>
    <path d="M92.7039 20.2624H78.6481C78.3559 19.6996 77.8909 19.2524 77.3257 18.9906L58.9204 10.4098C61.406 8.71296 64.58 7.70389 68.418 7.39779C69.4589 8.71587 72.2135 11.2285 76.6646 11.2285C77.0101 11.2285 77.3661 11.2128 77.7324 11.1813C77.9957 11.1583 78.2393 11.0285 78.4096 10.8206C78.5799 10.6127 78.663 10.3436 78.6406 10.0726C78.6182 9.80162 78.4922 9.55088 78.2902 9.37555C78.0882 9.20023 77.8268 9.11468 77.5636 9.13773C73.4444 9.49964 71.0226 7.32329 70.1491 6.33575C71.0226 5.34801 73.4463 3.17185 77.5636 3.53375C77.8268 3.5568 78.0882 3.47125 78.2902 3.29593C78.4922 3.12061 78.6182 2.86987 78.6406 2.59887C78.663 2.32787 78.5799 2.05882 78.4096 1.8509C78.2393 1.64298 77.9957 1.51322 77.7324 1.49017C72.5637 1.03774 69.4304 3.95395 68.3604 5.34775C63.0501 5.7579 59.3786 7.42626 56.8489 9.44404L54.3599 8.28363C53.6177 7.93845 52.8137 7.75672 51.9994 7.7501C51.185 7.74348 50.3783 7.91211 49.631 8.24517L25.6206 18.9731C25.0372 19.2313 24.5564 19.6859 24.2569 20.2624H9.297C7.63188 20.2639 6.03534 20.9453 4.85773 22.1572C3.68012 23.3691 3.01763 25.0123 3.01563 26.7264V30.1918C3.01563 30.1936 3.01514 30.1952 3.01514 30.1969C3.01514 30.1987 3.01561 30.2003 3.01563 30.202V71.1686C3.01563 71.1704 3.01514 71.172 3.01514 71.1737C3.01514 71.1754 3.01561 71.1771 3.01563 71.1788V79.6325C3.01722 81.3469 3.67951 82.9906 4.85715 84.2029C6.03479 85.4152 7.63157 86.097 9.297 86.0986H43.4673L41.4186 101.506H36.5611C36.297 101.506 36.0436 101.614 35.8568 101.807C35.67 101.999 35.5651 102.26 35.5651 102.532C35.5651 102.804 35.67 103.065 35.8568 103.257C36.0436 103.449 36.297 103.557 36.5611 103.557H65.8214C66.0856 103.557 66.3389 103.449 66.5257 103.257C66.7125 103.065 66.8175 102.804 66.8175 102.532C66.8175 102.26 66.7125 101.999 66.5257 101.807C66.3389 101.614 66.0856 101.506 65.8214 101.506H60.9639L58.9152 86.0986H92.7039C94.3692 86.0966 95.9658 85.4147 97.1434 84.2025C98.3209 82.9903 98.9833 81.3468 98.9853 79.6325V26.7264C98.9829 25.0124 98.3204 23.3694 97.1428 22.1576C95.9653 20.9458 94.3689 20.2642 92.7039 20.2624ZM58.953 101.506H43.4295L45.4781 86.0986H56.9044L58.953 101.506ZM92.7039 84.0478H57.7761L57.7735 84.0476H44.6091L44.6064 84.0478H9.297C8.15987 84.0464 7.06971 83.5807 6.26564 82.753C5.46156 81.9253 5.00922 80.8031 5.00782 79.6325V72.1991H82.674C82.9382 72.1991 83.1916 72.0911 83.3784 71.8988C83.5652 71.7065 83.6701 71.4457 83.6701 71.1737C83.6701 70.9018 83.5652 70.6409 83.3784 70.4486C83.1916 70.2563 82.9382 70.1483 82.674 70.1483H5.00784V31.2223H28.2194C28.4836 31.2223 28.737 31.1143 28.9238 30.922C29.1106 30.7297 29.2155 30.4689 29.2155 30.1969C29.2155 29.925 29.1106 29.6642 28.9238 29.4719C28.737 29.2796 28.4836 29.1716 28.2194 29.1716H5.00784V26.7264C5.00931 25.5561 5.46174 24.4341 6.26585 23.6067C7.06997 22.7793 8.16009 22.3141 9.29702 22.3131H24.0021C24.0954 22.7193 24.2735 23.0996 24.524 23.4276C24.7746 23.7556 25.0916 24.0235 25.453 24.2126L28.4819 25.8174C28.5985 25.8815 28.7262 25.9212 28.8577 25.934C28.9893 25.9468 29.122 25.9326 29.2481 25.8921C29.3742 25.8516 29.4913 25.7857 29.5925 25.6982C29.6936 25.6107 29.7768 25.5033 29.8373 25.3824C29.8978 25.2615 29.9343 25.1294 29.9446 24.9938C29.955 24.8582 29.9391 24.7218 29.8978 24.5926C29.8565 24.4634 29.7907 24.344 29.7041 24.2413C29.6175 24.1385 29.5119 24.0545 29.3935 23.9942L26.3646 22.3894C26.2256 22.3158 26.1098 22.2031 26.0306 22.0644C25.9515 21.9257 25.9122 21.7667 25.9173 21.6059C25.9225 21.4451 25.9719 21.2892 26.0598 21.1561C26.1477 21.0231 26.2704 20.9185 26.4138 20.8545L50.4242 10.1265C50.9163 9.9072 51.4475 9.79615 51.9837 9.8005C52.52 9.80485 53.0494 9.92449 53.5381 10.1518L55.2235 10.9375C54.4167 11.7905 53.7076 12.736 53.1102 13.7554C51.7393 16.0812 50.9569 18.7238 50.8347 21.4413C50.8348 21.7126 50.9394 21.9729 51.1257 22.1649C51.312 22.357 51.5647 22.465 51.8283 22.4655H51.8308C52.0943 22.4651 52.347 22.3575 52.5336 22.166C52.7202 21.9746 52.8257 21.7149 52.8269 21.4437C52.9593 19.0689 53.6589 16.7644 54.8635 14.7346C55.4961 13.6662 56.2676 12.6919 57.1566 11.8387L76.504 20.8587C76.6442 20.924 76.7639 21.0285 76.8495 21.1601C76.9351 21.2918 76.9832 21.4456 76.9884 21.6039C76.9936 21.7623 76.9557 21.919 76.8789 22.0563C76.8022 22.1937 76.6896 22.3062 76.554 22.3811L53.7646 34.9792C53.2159 35.2825 52.6038 35.444 51.981 35.4496C51.3582 35.4552 50.7435 35.3048 50.1897 35.0115L33.8361 26.3477C33.7198 26.2861 33.5928 26.2487 33.4624 26.2376C33.3321 26.2265 33.2009 26.2419 33.0763 26.283C32.9517 26.3241 32.8362 26.39 32.7364 26.477C32.6366 26.5641 32.5544 26.6705 32.4946 26.7902C32.4347 26.91 32.3983 27.0407 32.3875 27.1749C32.3768 27.3091 32.3917 27.4441 32.4317 27.5724C32.4716 27.7006 32.5356 27.8195 32.6202 27.9222C32.7047 28.025 32.8081 28.1096 32.9244 28.1712L36.1458 29.8777V38.7153C36.1458 43.6782 43.0368 47.5665 51.8303 47.5665C53.8238 47.5732 55.8122 47.3586 57.761 46.9266C57.8888 46.8978 58.0099 46.8434 58.1172 46.7664C58.2246 46.6894 58.3162 46.5914 58.3867 46.478C58.4573 46.3646 58.5055 46.238 58.5285 46.1055C58.5516 45.9729 58.549 45.8369 58.521 45.7054C58.493 45.5738 58.4402 45.4492 58.3654 45.3387C58.2906 45.2282 58.1954 45.1339 58.0853 45.0613C57.9751 44.9886 57.8521 44.939 57.7234 44.9153C57.5946 44.8916 57.4625 44.8942 57.3347 44.923C55.526 45.3239 53.6805 45.5226 51.8303 45.5157C44.4094 45.5157 38.138 42.4005 38.138 38.7153V30.9331L49.2781 36.8347C50.119 37.2804 51.0526 37.5089 51.9984 37.5004C52.9442 37.492 53.8738 37.2468 54.707 36.7861L65.5226 30.8072V38.7153C65.5226 40.3785 64.152 42.0642 61.7594 43.3378C61.6432 43.3997 61.5401 43.4846 61.4558 43.5876C61.3715 43.6906 61.3077 43.8096 61.2681 43.938C61.2285 44.0663 61.2139 44.2014 61.225 44.3356C61.2362 44.4698 61.2729 44.6004 61.3331 44.72C61.3932 44.8396 61.4757 44.9458 61.5757 45.0325C61.6758 45.1193 61.7914 45.1849 61.9161 45.2257C62.0408 45.2664 62.1721 45.2815 62.3024 45.27C62.4328 45.2586 62.5596 45.2208 62.6758 45.1588C65.7956 43.4957 67.5148 41.207 67.5148 38.7153V29.7059L77.4963 24.188C77.8465 23.996 78.1531 23.7296 78.3956 23.4063C78.6382 23.0831 78.8112 22.7105 78.9032 22.3131H92.7039C93.8408 22.3141 94.931 22.7793 95.7351 23.6067C96.5392 24.4341 96.9916 25.5561 96.9931 26.7264V29.1716H73.501C73.2369 29.1716 72.9835 29.2796 72.7967 29.4719C72.6099 29.6642 72.505 29.925 72.505 30.1969C72.505 30.4689 72.6099 30.7297 72.7967 30.922C72.9835 31.1143 73.2369 31.2223 73.501 31.2223H96.9931V70.1483H87.1338C86.8696 70.1483 86.6162 70.2563 86.4294 70.4486C86.2426 70.6409 86.1377 70.9018 86.1377 71.1737C86.1377 71.4457 86.2426 71.7065 86.4294 71.8988C86.6162 72.0911 86.8696 72.1991 87.1338 72.1991H96.9931V79.6325C96.9917 80.8031 96.5394 81.9253 95.7353 82.753C94.9312 83.5807 93.8411 84.0464 92.7039 84.0478Z" fill="white"/>
    <path d="M51 74.7037C50.341 74.7038 49.6969 74.9049 49.1491 75.2818C48.6012 75.6586 48.1742 76.1942 47.922 76.8209C47.6699 77.4476 47.6039 78.1371 47.7325 78.8024C47.861 79.4676 48.1783 80.0787 48.6442 80.5584C49.1102 81.038 49.7038 81.3646 50.35 81.497C50.9963 81.6293 51.6662 81.5614 52.2749 81.3018C52.8837 81.0423 53.404 80.6027 53.7701 80.0387C54.1362 79.4748 54.3316 78.8117 54.3316 78.1334C54.3306 77.2241 53.9793 76.3524 53.3547 75.7094C52.7301 75.0664 51.8833 74.7048 51 74.7037ZM51 79.5121C50.735 79.512 50.4761 79.4312 50.2558 79.2796C50.0356 79.1281 49.8639 78.9128 49.7626 78.6608C49.6612 78.4089 49.6347 78.1317 49.6864 77.8642C49.7381 77.5967 49.8657 77.3511 50.053 77.1583C50.2403 76.9654 50.479 76.8342 50.7388 76.781C50.9987 76.7278 51.268 76.7551 51.5127 76.8595C51.7574 76.9639 51.9666 77.1406 52.1138 77.3674C52.2609 77.5941 52.3394 77.8607 52.3394 78.1334C52.339 78.4989 52.1977 78.8494 51.9466 79.1078C51.6955 79.3663 51.3551 79.5117 51 79.5121Z" fill="white"/>
    <path d="M75.1733 5.31018C75.0425 5.31018 74.913 5.3367 74.7922 5.38823C74.6713 5.43976 74.5615 5.51529 74.469 5.61051C74.3765 5.70573 74.3031 5.81877 74.2531 5.94317C74.203 6.06758 74.1772 6.20092 74.1772 6.33557C74.1772 6.47023 74.203 6.60357 74.2531 6.72797C74.3031 6.85238 74.3765 6.96542 74.469 7.06063C74.5615 7.15585 74.6713 7.23138 74.7922 7.28291C74.913 7.33444 75.0425 7.36096 75.1733 7.36096H77.985C78.2492 7.36096 78.5025 7.25293 78.6893 7.06063C78.8761 6.86833 78.9811 6.60752 78.9811 6.33557C78.9811 6.06362 78.8761 5.80281 78.6893 5.61051C78.5025 5.41821 78.2492 5.31018 77.985 5.31018H75.1733Z" fill="white"/>
</svg>