<svg width="102" height="105" viewBox="0 0 102 105" fill="none" xmlns="http://www.w3.org/2000/svg">
    <path d="M95.3239 18.8743H89.4756L89.4588 3.27824C89.4579 2.40909 89.1127 1.57582 88.499 0.961234C87.8853 0.346653 87.0533 0.000959757 86.1854 0H52.2122C51.344 0.000516103 50.5115 0.345999 49.8973 0.960616C49.2832 1.57523 48.9377 2.40876 48.9366 3.27824V13.7936L41.8699 18.8743H38.3864V18.3299C38.3843 16.6067 37.6998 14.9546 36.4831 13.7362C35.2663 12.5177 33.6167 11.8322 31.896 11.8301H23.3885C21.6679 11.8321 20.0183 12.5174 18.8017 13.7358C17.5851 14.9543 16.9007 16.6062 16.8987 18.3293V18.8743H6.67606C4.90598 18.8759 3.20887 19.5809 1.95723 20.8344C0.705591 22.0878 0.00168179 23.7874 0 25.5601V80.2618C0.00168179 82.0344 0.705591 83.734 1.95723 84.9875C3.20887 86.241 4.90598 86.9459 6.67606 86.9476H42.9942L40.8167 102.88H35.654C35.3732 102.88 35.1039 102.991 34.9054 103.19C34.7068 103.389 34.5953 103.659 34.5953 103.94C34.5953 104.221 34.7068 104.491 34.9054 104.689C35.1039 104.888 35.3732 105 35.654 105H66.7527C67.0335 105 67.3028 104.888 67.5013 104.689C67.6999 104.491 67.8114 104.221 67.8114 103.94C67.8114 103.659 67.6999 103.389 67.5013 103.19C67.3028 102.991 67.0335 102.88 66.7527 102.88H61.59L59.4126 86.9476H95.3239C97.094 86.9459 98.7911 86.241 100.043 84.9875C101.294 83.734 101.998 82.0344 102 80.2618V25.5601C101.998 23.7874 101.294 22.0878 100.043 20.8344C98.7911 19.5809 97.094 18.8759 95.3239 18.8743ZM42.9539 102.88L45.1313 86.9479H57.2756L59.453 102.88H42.9539ZM86.1072 39.8929C85.73 39.4801 85.4809 38.9663 85.3903 38.4141C85.2998 37.862 85.3718 37.2953 85.5975 36.7835C85.8231 36.2716 86.1928 35.8366 86.6612 35.5316C87.1297 35.2266 87.6767 35.0648 88.2354 35.066C88.7941 35.0671 89.3405 35.2312 89.8076 35.5381C90.2748 35.8451 90.6426 36.2816 90.8662 36.7944C91.0898 37.3072 91.1594 37.8741 91.0666 38.4259C90.9738 38.9777 90.7225 39.4905 90.3435 39.9017C90.007 40.2636 89.7506 40.6927 89.5912 41.1608C89.4319 41.6289 89.3731 42.1255 89.4187 42.618C89.4605 43.0833 89.6015 43.5342 89.832 43.9403C90.0626 44.3465 90.3774 44.6984 90.7553 44.9723C91.0293 45.1732 91.326 45.3409 91.6393 45.472C92.2906 45.7635 92.8428 46.2393 93.2276 46.8408C93.6124 47.4424 93.8132 48.1436 93.8052 48.8579V52.3581H82.7322V48.824C82.724 48.1169 82.9234 47.423 83.3055 46.8283C83.6875 46.2337 84.2355 45.7644 84.8815 45.4788C85.0453 45.4113 85.2047 45.3336 85.3588 45.2462C85.7971 44.9985 86.1735 44.6544 86.4597 44.2398C86.7459 43.8253 86.9344 43.351 87.011 42.8529C87.0938 42.3232 87.0555 41.7816 86.899 41.2688C86.7424 40.7561 86.4717 40.2856 86.1072 39.8929ZM92.3721 43.7103C92.1976 43.6372 92.0323 43.5436 91.8798 43.4316C91.72 43.3154 91.5869 43.1663 91.4896 42.9942C91.3923 42.8222 91.3329 42.6313 91.3155 42.4343C91.2956 42.2097 91.3234 41.9835 91.3969 41.7705C91.4704 41.5574 91.5881 41.3623 91.7422 41.198C92.3727 40.5146 92.7908 39.6622 92.9455 38.7448C93.1002 37.8274 92.9847 36.8847 92.6132 36.032C92.2417 35.1792 91.6302 34.4532 90.8535 33.9428C90.0768 33.4323 89.1684 33.1595 88.2394 33.1576C87.3103 33.1557 86.4008 33.4248 85.622 33.932C84.8432 34.4393 84.2288 35.1627 83.8537 36.0139C83.4787 36.8651 83.3594 37.8073 83.5103 38.7254C83.6612 39.6434 84.0759 40.4975 84.7036 41.1835C84.8734 41.3651 85 41.5829 85.0736 41.8206C85.1472 42.0583 85.166 42.3096 85.1286 42.5557C85.0974 42.7702 85.0172 42.9747 84.8944 43.1533C84.7716 43.3318 84.6093 43.4797 84.4203 43.5854C84.335 43.6336 84.2469 43.6766 84.1563 43.714C83.1569 44.1377 82.3063 44.8502 81.7132 45.7604C81.1201 46.6706 80.8114 47.7372 80.8265 48.824V52.3585H76.8817V30.206H99.8826V52.3585H95.7109V48.858C95.7257 47.7654 95.4164 46.6929 94.822 45.7765C94.2276 44.86 93.375 44.1409 92.3721 43.7103ZM74.976 35.9185C74.9583 35.9048 74.9426 35.8894 74.9247 35.8759L71.5136 33.3177L73.5632 30.5766C73.65 30.4587 73.7284 30.3349 73.798 30.206H74.9761L74.976 35.9185ZM69.8174 43.1155C68.7378 43.3698 67.7817 43.996 67.1163 44.8846L66.1983 46.1125L61.8121 42.8227L62.841 41.4467C63.4193 40.6757 63.7472 39.7455 63.7803 38.7818L63.819 37.6967C63.8419 37.0355 64.0669 36.3972 64.4635 35.868L70.2682 28.1056C70.4271 27.8931 70.6638 27.7525 70.9262 27.7148C71.1886 27.677 71.4552 27.7452 71.6674 27.9043C71.8796 28.0635 72.02 28.3005 72.0577 28.5633C72.0953 28.8261 72.0272 29.0931 71.8683 29.3056L69.1842 32.8953C69.0159 33.1203 68.9438 33.4031 68.9837 33.6814C69.0236 33.9598 69.1722 34.2108 69.397 34.3794L73.6555 37.5731C73.9167 37.769 74.1368 38.0145 74.3033 38.2956C74.4698 38.5767 74.5793 38.8879 74.6257 39.2113C74.6721 39.5348 74.6543 39.8643 74.5736 40.181C74.4928 40.4976 74.3505 40.7952 74.1548 41.0568L73.6117 41.7834C73.3532 42.1287 72.9817 42.372 72.5622 42.4707L69.8174 43.1155ZM38.5267 55.8839C38.3132 55.9525 38.1269 56.0873 37.9947 56.2687C37.8626 56.4502 37.7913 56.669 37.7913 56.8936V70.4559H20.6544V57.1282C20.6544 56.847 20.5428 56.5773 20.3443 56.3785C20.1458 56.1797 19.8765 56.068 19.5957 56.068C19.3149 56.068 19.0456 56.1797 18.8471 56.3785C18.6486 56.5773 18.537 56.847 18.537 57.1282V70.4559H10.4022V50.7038C10.4042 48.959 11.0972 47.2863 12.3291 46.0525C13.5611 44.8187 15.2314 44.1247 16.9737 44.1227H22.6509L25.28 45.682L27.9768 47.2822C28.4659 47.5749 29.0247 47.7302 29.5945 47.7317C29.8541 47.7312 30.1126 47.6981 30.364 47.6331C30.3713 47.6312 30.3788 47.6298 30.386 47.6279C30.4316 47.6158 30.4768 47.6015 30.5221 47.5874C30.5444 47.5804 30.5669 47.5745 30.5892 47.567C30.6128 47.5591 30.636 47.5495 30.6595 47.5409C30.8346 47.478 31.0041 47.4001 31.166 47.3082C31.5597 47.0868 31.9011 46.7829 32.1667 46.4171C32.4323 46.0513 32.6158 45.6324 32.7048 45.189C32.7471 44.9776 32.7684 44.7624 32.7683 44.5468V44.1227H38.741C40.1168 44.1192 41.4667 44.4977 42.6406 45.2162C43.8146 45.9347 44.7666 46.9651 45.3911 48.1928L48.2877 53.8523C48.4728 54.2143 48.7475 54.5227 49.0855 54.7481C49.4235 54.9736 49.8135 55.1086 50.2183 55.1403C50.6232 55.1721 51.0294 55.0994 51.3983 54.9293C51.7672 54.7591 52.0864 54.4972 52.3255 54.1685L59.6618 44.0853L65.7969 48.9054L57.2984 60.4396C56.4473 61.5947 55.3353 62.5316 54.0532 63.1737C52.7712 63.8158 51.3556 64.1449 49.9222 64.134C48.4889 64.1232 47.0784 63.7726 45.8062 63.1112C44.5341 62.4497 43.4363 61.496 42.6027 60.3282L39.7112 56.277C39.5808 56.0943 39.3958 55.9578 39.1829 55.8871C38.9701 55.8165 38.7403 55.8153 38.5267 55.8839ZM2.11737 70.4559V30.206H13.9171C14.29 30.8177 14.7963 31.337 15.3981 31.7248C16 32.1126 16.6816 32.3589 17.3921 32.4452C18.1441 34.8753 19.7363 36.9574 21.883 38.3177V42.0023H16.9737C14.6701 42.0049 12.4616 42.9225 10.8326 44.5538C9.20374 46.1851 8.28746 48.3968 8.28484 50.7038V70.4559H2.11737ZM41.481 30.206H66.0524L62.7688 34.597C62.1128 35.4719 61.7408 36.5274 61.7032 37.6208L61.6644 38.7059C61.6462 39.2374 61.4653 39.7505 61.1464 40.1757L60.0187 41.6837C59.793 41.5367 59.5195 41.4822 59.2548 41.5315C58.9901 41.5809 58.7545 41.7304 58.5968 41.9489L50.6144 52.92C50.5882 52.956 50.5532 52.9847 50.5129 53.0034C50.4725 53.022 50.428 53.03 50.3837 53.0265C50.3393 53.023 50.2966 53.0082 50.2596 52.9836C50.2226 52.9589 50.1926 52.9251 50.1723 52.8855L47.2757 47.2259C46.4743 45.6503 45.2524 44.328 43.7459 43.4059C42.2393 42.4838 40.507 41.998 38.7413 42.0024H32.7684V38.6741C35.0871 37.4075 36.8619 35.3339 37.7572 32.8454C38.5539 32.7691 39.3168 32.4853 39.97 32.0223C40.6233 31.5593 41.1442 30.9331 41.481 30.206ZM30.651 43.0624V44.5463C30.6535 44.6823 30.6287 44.8173 30.5782 44.9434C30.5277 45.0696 30.4524 45.1843 30.3568 45.2809C30.2449 45.3943 30.1098 45.4822 29.9607 45.5386C29.7746 45.61 29.5718 45.6256 29.3769 45.5838C29.264 45.5589 29.1558 45.5159 29.0567 45.4563L24.0004 42.458V39.3499C26.1412 40.1149 28.4685 40.1843 30.651 39.5483V43.0621L30.651 43.0624ZM37.3277 30.7457C36.8412 30.7457 36.3655 30.6012 35.961 30.3305C35.5564 30.0598 35.2411 29.675 35.0549 29.2249C34.8687 28.7747 34.82 28.2793 34.9149 27.8014C35.0098 27.3235 35.2441 26.8845 35.5881 26.5399C35.9322 26.1954 36.3705 25.9607 36.8477 25.8657C37.3249 25.7706 37.8196 25.8194 38.2691 26.0058C38.7186 26.1923 39.1028 26.508 39.3732 26.9132C39.6435 27.3183 39.7878 27.7946 39.7878 28.2819C39.7872 28.9351 39.5278 29.5614 39.0666 30.0233C38.6053 30.4852 37.98 30.745 37.3277 30.7457ZM36.2684 18.3292V20.6025L23.68 20.5335H23.6627C22.9125 20.5373 22.188 20.8079 21.6186 21.2971C21.0491 21.7862 20.6717 22.462 20.5537 23.204L20.4442 23.9151C20.424 24.0462 20.364 24.1679 20.2724 24.2637C20.1807 24.3595 20.0619 24.4247 19.932 24.4506C19.8021 24.4765 19.6674 24.4617 19.5461 24.4083C19.4248 24.355 19.3229 24.2655 19.2541 24.1522L19.0163 23.7602V18.3299C19.0171 17.6702 19.1678 17.0194 19.457 16.4267C19.8563 15.6009 20.5028 14.9205 21.3066 14.4802C21.9456 14.1319 22.6617 13.95 23.3892 13.9509H31.8962C33.0545 13.9551 34.1641 14.4178 34.9831 15.238C35.8021 16.0582 36.2641 17.1693 36.2684 18.3292ZM17.3991 25.1785L17.4443 25.2531C17.687 25.6596 18.0309 25.9961 18.4423 26.2296C18.8538 26.4632 19.3187 26.5858 19.7916 26.5854C19.9775 26.5853 20.1629 26.5669 20.3452 26.5305C20.9028 26.4233 21.4133 26.1451 21.806 25.7343C22.1987 25.3236 22.454 24.8008 22.5367 24.2382L22.6463 23.5271C22.6849 23.2845 22.8082 23.0636 22.9944 22.9037C23.1806 22.7438 23.4174 22.6553 23.6627 22.6541H23.6684L36.2684 22.723V23.8232C35.4449 24.0212 34.6921 24.4434 34.0932 25.0432C33.4944 25.643 33.0729 26.397 32.8753 27.2218H31.8562C31.7884 27.2221 31.7208 27.2289 31.6543 27.2421C31.3994 26.1463 30.751 25.1826 29.8325 24.5345C28.9141 23.8864 27.7897 23.5993 26.6735 23.7277C25.5573 23.8562 24.5272 24.3913 23.7795 25.2311C23.0317 26.0709 22.6185 27.1568 22.6185 28.282C22.6185 29.4072 23.0317 30.4931 23.7795 31.3329C24.5272 32.1727 25.5573 32.7078 26.6735 32.8363C27.7897 32.9647 28.9141 32.6776 29.8325 32.0295C30.751 31.3814 31.3994 30.4177 31.6543 29.3218C31.7208 29.3351 31.7884 29.3419 31.8562 29.3422H32.8753C33.0455 30.0528 33.3823 30.7125 33.8578 31.2668C34.3332 31.8211 34.9336 32.2541 35.6094 32.5298C34.9094 34.2201 33.6915 35.6441 32.1313 36.5965C30.5711 37.5489 28.7492 37.9806 26.9282 37.8292C25.1073 37.6778 23.3814 36.9512 21.9993 35.7542C20.6173 34.5571 19.6506 32.9515 19.2385 31.1687C19.1853 30.9352 19.0545 30.7267 18.8676 30.5772C18.6807 30.4278 18.4486 30.3463 18.2095 30.346C18.184 30.346 18.1586 30.3481 18.1353 30.3502L18.0994 30.3523C18.0528 30.3545 18.0062 30.3587 17.9575 30.3587C17.3121 30.3589 16.6894 30.1202 16.209 29.6884C15.7287 29.2566 15.4247 28.6623 15.3555 28.0197C15.2862 27.3771 15.4566 26.7315 15.8338 26.207C16.2111 25.6826 16.7685 25.3163 17.3991 25.1785ZM29.657 28.282C29.6571 28.7693 29.5128 29.2456 29.2425 29.6508C28.9722 30.056 28.588 30.3718 28.1385 30.5582C27.6889 30.7447 27.1943 30.7935 26.7171 30.6985C26.2398 30.6034 25.8015 30.3688 25.4574 30.0243C25.1133 29.6797 24.879 29.2407 24.7841 28.7628C24.6892 28.2849 24.7379 27.7895 24.9241 27.3393C25.1103 26.8891 25.4256 26.5043 25.8301 26.2336C26.2347 25.9629 26.7104 25.8184 27.1969 25.8184C27.8491 25.8191 28.4744 26.0789 28.9356 26.5408C29.3968 27.0026 29.6563 27.6288 29.657 28.282ZM95.3239 20.9947C96.5325 20.9962 97.6912 21.4777 98.5458 22.3335C99.4004 23.1894 99.8811 24.3497 99.8826 25.5601V28.0856H89.2693C89.4107 27.7152 89.4835 27.3222 89.4842 26.9257L89.4778 20.9947H95.3239ZM50.6136 15.1995C50.75 15.1014 50.8612 14.9721 50.9378 14.8224C51.0144 14.6727 51.0542 14.5068 51.054 14.3386V3.27824C51.0549 2.97108 51.1772 2.67678 51.3943 2.45979C51.6114 2.24279 51.9055 2.12078 52.2122 2.12047H86.1854C86.4922 2.12098 86.7863 2.24342 87.003 2.46089C87.2198 2.67836 87.3415 2.97309 87.3415 3.28036L87.3669 26.9278C87.3665 27.2347 87.2445 27.529 87.0278 27.746C86.8111 27.9631 86.5173 28.0852 86.2108 28.0856H74.1196C74.001 27.4953 73.7143 26.952 73.2941 26.5213C72.8739 26.0907 72.3382 25.7911 71.7517 25.6588C71.1652 25.5265 70.5529 25.5671 69.9889 25.7757C69.4249 25.9844 68.9333 26.3521 68.5735 26.8345L67.638 28.0856H52.2376C51.9305 28.0849 51.6361 27.9622 51.4193 27.7443C51.2025 27.5264 51.081 27.2312 51.0815 26.9236L51.054 19.9303C51.0534 19.6497 50.9415 19.3808 50.743 19.1828C50.5444 18.9847 50.2755 18.8738 49.9953 18.8743H45.5044L50.6136 15.1995ZM42.2119 20.9947H48.9409L48.9642 26.9278C48.9649 27.3236 49.0375 27.7159 49.1786 28.0856H41.9002C41.8561 27.0892 41.4893 26.1343 40.8553 25.3653C40.2212 24.5962 39.3543 24.0548 38.3858 23.8229V21.6749C38.3858 21.6728 38.3864 21.6707 38.3864 21.6685V20.9947L42.2119 20.9947ZM6.67606 20.9947H16.8987V23.1152C15.8549 23.3569 14.9234 23.9453 14.256 24.7846C13.5886 25.624 13.2245 26.6649 13.223 27.7378C13.223 27.8551 13.2309 27.9704 13.2393 28.0856H2.11737V25.5601C2.11885 24.3497 2.59962 23.1894 3.45422 22.3335C4.30882 21.4777 5.46748 20.9962 6.67606 20.9947ZM95.3239 84.8271H6.67606C5.46748 84.8256 4.30882 84.3442 3.45422 83.4883C2.59962 82.6325 2.11885 81.4721 2.11737 80.2618V72.5763H84.6644C84.9451 72.5763 85.2144 72.4646 85.413 72.2658C85.6115 72.067 85.723 71.7973 85.723 71.5161C85.723 71.2349 85.6115 70.9652 85.413 70.7664C85.2144 70.5676 84.9451 70.4559 84.6644 70.4559H39.9087V60.2002L40.8802 61.5613C41.9081 63.0015 43.2618 64.1775 44.8306 64.9932C46.3993 65.8089 48.1386 66.2412 49.9062 66.2546C51.6738 66.268 53.4195 65.8622 55.0004 65.0704C56.5813 64.2785 57.9527 63.1232 59.0022 61.6988L68.1111 49.3363C68.2746 49.1144 68.3453 48.8375 68.3083 48.5642C68.2713 48.291 68.1294 48.0429 67.9127 47.8727L67.67 47.682L68.8112 46.1556C69.1782 45.6655 69.7054 45.3202 70.3009 45.1801L73.0456 44.5352C73.7806 44.3609 74.4505 43.9795 74.976 43.4361V53.3128C74.9764 53.5657 75.0769 53.8082 75.2555 53.9871C75.4341 54.1659 75.6762 54.2666 75.9288 54.267H99.8826V70.4559H89.4042C89.1235 70.4559 88.8542 70.5676 88.6556 70.7664C88.4571 70.9652 88.3456 71.2349 88.3456 71.5161C88.3456 71.7973 88.4571 72.067 88.6556 72.2658C88.8542 72.4646 89.1235 72.5763 89.4042 72.5763H99.8826V80.2618C99.8811 81.4721 99.4004 82.6325 98.5458 83.4883C97.6912 84.3442 96.5325 84.8256 95.3239 84.8271Z" fill="white"/>
    <path d="M62.0585 18.0181C63.2944 18.0181 64.5026 17.6511 65.5302 16.9634C66.5578 16.2758 67.3588 15.2984 67.8318 14.1549C68.3047 13.0114 68.4285 11.7531 68.1874 10.5391C67.9462 9.32519 67.3511 8.21011 66.4772 7.3349C65.6032 6.45969 64.4898 5.86367 63.2776 5.6222C62.0654 5.38073 60.809 5.50466 59.6671 5.97832C58.5253 6.45198 57.5493 7.25409 56.8627 8.28323C56.1761 9.31236 55.8096 10.5223 55.8096 11.76C55.8114 13.4192 56.4704 15.0099 57.6419 16.1831C58.8134 17.3563 60.4018 18.0162 62.0585 18.0181ZM62.0585 7.62242C62.8756 7.62242 63.6744 7.86509 64.3539 8.31973C65.0333 8.77438 65.5629 9.42058 65.8756 10.1766C66.1883 10.9327 66.2701 11.7646 66.1107 12.5672C65.9513 13.3698 65.5578 14.1071 64.98 14.6857C64.4021 15.2644 63.666 15.6585 62.8645 15.8181C62.0631 15.9778 61.2324 15.8958 60.4774 15.5827C59.7225 15.2695 59.0772 14.7392 58.6232 14.0588C58.1693 13.3783 57.9269 12.5784 57.9269 11.76C57.9282 10.6631 58.3639 9.61138 59.1384 8.83572C59.913 8.06006 60.9631 7.62365 62.0585 7.62242Z" fill="white"/>
    <path d="M70.772 22.3275H82.3627C82.5507 22.3275 82.7354 22.2773 82.8976 22.1822C83.0599 22.087 83.194 21.9503 83.286 21.7861C83.378 21.6218 83.4247 21.436 83.4212 21.2478C83.4177 21.0595 83.3643 20.8755 83.2663 20.7148L77.4709 11.2075C77.3764 11.0524 77.2436 10.9242 77.0854 10.8353C76.9271 10.7464 76.7488 10.6997 76.5673 10.6997C76.3859 10.6997 76.2075 10.7464 76.0493 10.8353C75.891 10.9242 75.7583 11.0524 75.6637 11.2075L69.8685 20.7148C69.7705 20.8755 69.717 21.0595 69.7136 21.2478C69.7101 21.436 69.7568 21.6218 69.8488 21.7861C69.9408 21.9503 70.0748 22.087 70.2371 22.1822C70.3994 22.2773 70.584 22.3275 70.772 22.3275ZM76.5673 13.7947L80.4759 20.207H72.6586L76.5673 13.7947Z" fill="white"/>
    <path d="M77.95 8.10262H79.2809V9.43551C79.2809 9.66046 79.3701 9.8762 79.529 10.0353C79.6878 10.1943 79.9032 10.2837 80.1278 10.2837C80.3525 10.2837 80.5679 10.1943 80.7267 10.0353C80.8856 9.8762 80.9748 9.66046 80.9748 9.43551V8.10262H82.3057C82.5303 8.10262 82.7457 8.01326 82.9046 7.8542C83.0634 7.69513 83.1526 7.47939 83.1526 7.25444C83.1526 7.02948 83.0634 6.81375 82.9046 6.65468C82.7457 6.49561 82.5303 6.40625 82.3057 6.40625H80.9748V5.07328C80.9748 4.84833 80.8856 4.63259 80.7267 4.47353C80.5679 4.31446 80.3525 4.2251 80.1278 4.2251C79.9032 4.2251 79.6878 4.31446 79.529 4.47353C79.3701 4.63259 79.2809 4.84833 79.2809 5.07328V6.40625H77.95C77.7254 6.40625 77.5099 6.49561 77.3511 6.65468C77.1923 6.81375 77.103 7.02948 77.103 7.25444C77.103 7.47939 77.1923 7.69513 77.3511 7.8542C77.5099 8.01326 77.7254 8.10262 77.95 8.10262Z" fill="white"/>
    <path d="M61.9898 22.5099H57.6341C57.4094 22.5099 57.194 22.5993 57.0352 22.7583C56.8763 22.9174 56.7871 23.1331 56.7871 23.3581C56.7871 23.583 56.8763 23.7988 57.0352 23.9578C57.194 24.1169 57.4094 24.2063 57.6341 24.2063H61.9898C62.2144 24.2063 62.4298 24.1169 62.5886 23.9578C62.7475 23.7988 62.8367 23.583 62.8367 23.3581C62.8367 23.1331 62.7475 22.9174 62.5886 22.7583C62.4298 22.5993 62.2144 22.5099 61.9898 22.5099Z" fill="white"/>
    <path d="M51 75.1658C50.2996 75.1658 49.615 75.3737 49.0327 75.7634C48.4504 76.1531 47.9965 76.7069 47.7285 77.3549C47.4605 78.0029 47.3904 78.7159 47.527 79.4038C47.6637 80.0917 48.0009 80.7235 48.4961 81.2195C48.9913 81.7154 49.6223 82.0532 50.3092 82.19C50.9961 82.3268 51.708 82.2566 52.3551 81.9882C53.0021 81.7198 53.5551 81.2653 53.9442 80.6821C54.3333 80.0989 54.541 79.4133 54.541 78.712C54.54 77.7718 54.1665 76.8704 53.5027 76.2056C52.8389 75.5408 51.9388 75.1668 51 75.1658ZM51 80.1377C50.7184 80.1377 50.4432 80.0541 50.2091 79.8974C49.9749 79.7407 49.7925 79.5181 49.6847 79.2576C49.577 78.997 49.5488 78.7104 49.6037 78.4338C49.6586 78.1572 49.7942 77.9032 49.9933 77.7038C50.1924 77.5044 50.4461 77.3686 50.7223 77.3136C50.9984 77.2586 51.2847 77.2869 51.5448 77.3948C51.8049 77.5027 52.0273 77.6854 52.1837 77.9199C52.3401 78.1543 52.4236 78.43 52.4236 78.712C52.4232 79.0899 52.2731 79.4523 52.0062 79.7196C51.7393 79.9869 51.3774 80.1372 51 80.1377Z" fill="white"/>
</svg>