<svg width="24.000000" height="24.000000" viewBox="0 0 24 24" fill="none" xmlns="http://www.w3.org/2000/svg" xmlns:xlink="http://www.w3.org/1999/xlink">
	<desc>
			Created with Pixso.
	</desc>
	<defs/>
	<path id="Vector" d="M9.62 16.02C9.52 15.62 9.31 15.26 9.02 14.97C8.73 14.68 8.37 14.47 7.97 14.37L0.91 12.55C0.79 12.51 0.69 12.44 0.61 12.34C0.54 12.24 0.5 12.12 0.5 12C0.5 11.87 0.54 11.75 0.61 11.65C0.69 11.55 0.79 11.48 0.91 11.44L7.97 9.62C8.37 9.52 8.73 9.31 9.02 9.02C9.31 8.73 9.52 8.37 9.62 7.97L11.44 0.92C11.47 0.79 11.55 0.69 11.65 0.61C11.75 0.54 11.87 0.5 11.99 0.5C12.12 0.5 12.24 0.54 12.34 0.61C12.44 0.69 12.51 0.79 12.55 0.92L14.37 7.97C14.47 8.37 14.68 8.73 14.97 9.02C15.26 9.31 15.62 9.52 16.02 9.62L23.07 11.44C23.19 11.47 23.3 11.55 23.38 11.65C23.45 11.75 23.5 11.87 23.5 12C23.5 12.12 23.45 12.24 23.38 12.34C23.3 12.44 23.19 12.52 23.07 12.55L16.02 14.37C15.62 14.47 15.26 14.68 14.97 14.97C14.68 15.26 14.47 15.62 14.37 16.02L12.55 23.08C12.51 23.2 12.44 23.3 12.34 23.38C12.24 23.45 12.12 23.5 11.99 23.5C11.87 23.5 11.74 23.45 11.64 23.38C11.54 23.3 11.47 23.2 11.44 23.08L9.62 16.02Z" fill="#9CC3FD" fill-opacity="1.000000" fill-rule="nonzero"/>
	<path id="Vector" d="M9.02 14.97C8.73 14.68 8.37 14.47 7.97 14.37L0.91 12.55C0.79 12.51 0.69 12.44 0.61 12.34C0.54 12.24 0.5 12.12 0.5 12C0.5 11.87 0.54 11.75 0.61 11.65C0.69 11.55 0.79 11.48 0.91 11.44L7.97 9.62C8.37 9.52 8.73 9.31 9.02 9.02C9.31 8.73 9.52 8.37 9.62 7.97L11.44 0.92C11.47 0.79 11.55 0.69 11.65 0.61C11.75 0.54 11.87 0.5 11.99 0.5C12.12 0.5 12.24 0.54 12.34 0.61C12.44 0.69 12.51 0.79 12.55 0.92L14.37 7.97C14.47 8.37 14.68 8.73 14.97 9.02C15.26 9.31 15.62 9.52 16.02 9.62L23.07 11.44C23.19 11.47 23.3 11.55 23.38 11.65C23.45 11.75 23.5 11.87 23.5 12C23.5 12.12 23.45 12.24 23.38 12.34C23.3 12.44 23.19 12.52 23.07 12.55L16.02 14.37C15.62 14.47 15.26 14.68 14.97 14.97C14.68 15.26 14.47 15.62 14.37 16.02L12.55 23.08C12.51 23.2 12.44 23.3 12.34 23.38C12.24 23.45 12.12 23.5 11.99 23.5C11.87 23.5 11.74 23.45 11.64 23.38C11.54 23.3 11.47 23.2 11.44 23.08L9.62 16.02C9.52 15.62 9.31 15.26 9.02 14.97Z" stroke="#1C1E22" stroke-opacity="1.000000" stroke-width="1.000000" stroke-linejoin="round"/>
</svg>
