<svg width="17.651855" height="21.895386" viewBox="0 0 17.6519 21.8954" fill="none" xmlns="http://www.w3.org/2000/svg" xmlns:xlink="http://www.w3.org/1999/xlink">
	<desc>
			Created with Pixso.
	</desc>
	<defs/>
	<path id="Vector" d="M17.54 5.11C18.18 8.53 15.93 11.82 12.5 12.47C11.87 12.59 10.42 12.72 9.62 12.27L8.92 13.3C8.5 13.91 8.67 14.03 8.94 14.23C9.06 14.32 9.19 14.42 9.31 14.57C9.31 14.57 10.22 15.44 9.69 16.58C9.36 17.24 8.3 18.27 6.66 17.16L6.42 17.5C6.42 17.5 7.48 18.34 6.95 19.49C6.62 20.14 5.58 20.94 4.38 20.12L3.56 21.32C2.99 22.14 2.07 21.9 1.68 21.67L0.65 20.98C-0.31 20.32 -0.01 19.36 0.27 18.96L6.36 10.06C6.36 10.06 5.42 9.05 5.12 7.47C4.47 4.05 6.73 0.76 10.16 0.11C13.58 -0.54 16.89 1.7 17.54 5.11ZM11.74 8.45C12.31 8.34 12.82 8.01 13.15 7.53C13.48 7.05 13.6 6.45 13.49 5.88C13.44 5.6 13.33 5.33 13.17 5.09C13.01 4.84 12.81 4.64 12.57 4.47C12.33 4.31 12.06 4.2 11.78 4.14C11.49 4.08 11.2 4.08 10.92 4.13C10.64 4.19 10.36 4.3 10.12 4.45C9.88 4.61 9.67 4.82 9.51 5.05C9.35 5.29 9.23 5.56 9.17 5.84C9.11 6.13 9.11 6.42 9.16 6.7C9.27 7.27 9.61 7.78 10.09 8.11C10.57 8.43 11.16 8.56 11.74 8.45Z" fill="#9CC3FD" fill-opacity="1.000000" fill-rule="evenodd"/>
	<path id="Vector" d="M9.62 12.27C10.42 12.72 11.87 12.59 12.5 12.47C15.93 11.82 18.18 8.53 17.54 5.11C16.89 1.7 13.58 -0.54 10.16 0.11C6.73 0.76 4.47 4.05 5.12 7.47C5.42 9.05 6.36 10.06 6.36 10.06L0.27 18.96C-0.01 19.36 -0.31 20.32 0.65 20.98L1.68 21.67C2.07 21.9 2.99 22.14 3.56 21.32L4.38 20.12C5.58 20.94 6.62 20.14 6.95 19.49C7.12 19.11 7.13 18.77 7.05 18.48C6.9 17.9 6.46 17.53 6.42 17.5C6.42 17.5 6.42 17.5 6.42 17.5L6.66 17.16C6.67 17.16 6.67 17.17 6.68 17.17C7.09 17.44 7.46 17.58 7.79 17.63C8.79 17.78 9.45 17.07 9.69 16.58C10.22 15.44 9.31 14.57 9.31 14.57C9.19 14.42 9.06 14.32 8.94 14.23C8.67 14.03 8.5 13.91 8.92 13.3L9.62 12.27ZM6.05 19.05Q6.11 18.92 6.1 18.79Q6.08 18.68 6.01 18.55Q5.95 18.44 5.85 18.33Q5.82 18.3 5.79 18.28Q5.79 18.27 5.79 18.27L5.07 17.7L6.4 15.77L7.22 16.33Q7.86 16.77 8.29 16.61Q8.3 16.61 8.3 16.6Q8.46 16.54 8.6 16.4Q8.72 16.28 8.79 16.15Q8.86 15.98 8.85 15.83Q8.85 15.7 8.79 15.56Q8.73 15.44 8.65 15.34Q8.63 15.31 8.61 15.29Q8.61 15.28 8.61 15.28L8.56 15.24L8.51 15.18Q8.48 15.14 8.35 15.04Q8.35 15.04 8.35 15.04Q7.81 14.64 7.7 14.15Q7.56 13.52 8.09 12.74L9.31 10.96L10.11 11.4Q10.25 11.48 10.51 11.53Q10.78 11.58 11.14 11.59Q11.46 11.59 11.81 11.56Q12.09 11.53 12.31 11.49Q12.92 11.38 13.47 11.14Q13.88 10.95 14.27 10.7Q14.68 10.42 15.03 10.09Q15.41 9.72 15.72 9.27Q16.04 8.8 16.25 8.28Q16.43 7.86 16.53 7.4Q16.63 6.94 16.64 6.48Q16.67 5.89 16.55 5.3Q16.44 4.71 16.21 4.17Q16.02 3.75 15.76 3.35Q15.5 2.97 15.18 2.64Q14.8 2.23 14.33 1.91Q13.88 1.61 13.38 1.4Q12.94 1.22 12.45 1.11Q12 1.02 11.55 1Q10.95 0.97 10.34 1.09Q9.74 1.2 9.19 1.45Q8.77 1.63 8.38 1.88Q7.97 2.16 7.63 2.49Q7.24 2.86 6.93 3.32Q6.61 3.79 6.4 4.3Q6.23 4.73 6.13 5.18Q6.03 5.64 6.01 6.11Q5.99 6.69 6.1 7.28Q6.11 7.34 6.12 7.39Q6.29 8.14 6.71 8.84Q6.85 9.07 7 9.27Q7.06 9.35 7.09 9.38L7.64 9.97L1.09 19.53Q1.05 19.58 1.03 19.67Q0.99 19.77 1 19.85Q1 19.91 1.02 19.97Q1.07 20.06 1.21 20.15L2.2 20.82Q2.25 20.85 2.32 20.87Q2.43 20.89 2.51 20.89Q2.58 20.89 2.62 20.87Q2.68 20.84 2.73 20.75L4.11 18.74L4.94 19.29Q5.16 19.44 5.35 19.46Q5.39 19.47 5.42 19.47Q5.52 19.46 5.62 19.43Q5.77 19.37 5.89 19.25Q6 19.15 6.05 19.05ZM13.57 8.57Q13.79 8.35 13.97 8.09Q14.15 7.83 14.27 7.54Q14.4 7.26 14.46 6.94Q14.53 6.63 14.53 6.32Q14.53 6.01 14.48 5.7Q14.41 5.36 14.28 5.04Q14.17 4.78 14.01 4.54Q13.83 4.27 13.61 4.05Q13.39 3.82 13.13 3.65Q12.87 3.47 12.58 3.35Q12.29 3.22 11.98 3.16Q11.67 3.1 11.36 3.09Q11.04 3.09 10.73 3.15Q10.44 3.21 10.17 3.31Q9.86 3.43 9.58 3.62Q9.31 3.79 9.09 4.01Q8.86 4.23 8.68 4.49Q8.5 4.75 8.38 5.04Q8.26 5.33 8.19 5.64Q8.13 5.95 8.12 6.26Q8.12 6.57 8.18 6.89Q8.25 7.23 8.38 7.54Q8.49 7.8 8.65 8.05Q8.83 8.31 9.04 8.53Q9.26 8.76 9.53 8.93Q9.79 9.11 10.08 9.23Q10.37 9.36 10.68 9.42Q10.99 9.48 11.3 9.49Q11.61 9.49 11.92 9.43Q12.21 9.38 12.48 9.27Q12.79 9.15 13.08 8.97Q13.35 8.79 13.57 8.57ZM11.74 8.45C12.31 8.34 12.82 8.01 13.15 7.53C13.48 7.05 13.6 6.45 13.49 5.88C13.44 5.6 13.33 5.33 13.17 5.09C13.01 4.84 12.81 4.64 12.57 4.47C12.33 4.31 12.06 4.2 11.78 4.14C11.49 4.08 11.2 4.08 10.92 4.13C10.64 4.19 10.36 4.3 10.12 4.45C9.88 4.61 9.67 4.82 9.51 5.05C9.35 5.29 9.23 5.56 9.17 5.84C9.11 6.13 9.11 6.42 9.16 6.7C9.27 7.27 9.61 7.78 10.09 8.11C10.57 8.43 11.16 8.56 11.74 8.45Z" fill="#000000" fill-opacity="1.000000" fill-rule="evenodd"/>
</svg>
