<svg width="15.000000" height="15.000000" viewBox="0 0 15 15" fill="none" xmlns="http://www.w3.org/2000/svg" xmlns:xlink="http://www.w3.org/1999/xlink">
	<desc>
			Created with Pixso.
	</desc>
	<defs/>
	<path id="Vector" d="M6.05 9.94C5.99 9.7 5.86 9.48 5.68 9.3C5.51 9.13 5.29 9 5.04 8.94L0.75 7.83C0.68 7.81 0.61 7.77 0.57 7.71C0.52 7.65 0.5 7.57 0.5 7.5C0.5 7.42 0.52 7.34 0.57 7.28C0.61 7.22 0.68 7.18 0.75 7.16L5.04 6.05C5.29 5.99 5.51 5.86 5.68 5.68C5.86 5.51 5.99 5.29 6.05 5.05L7.16 0.75C7.18 0.68 7.22 0.61 7.28 0.57C7.34 0.52 7.42 0.5 7.49 0.5C7.57 0.5 7.64 0.52 7.71 0.57C7.77 0.61 7.81 0.68 7.83 0.75L8.94 5.05C9 5.29 9.13 5.51 9.3 5.69C9.48 5.86 9.7 5.99 9.94 6.05L14.24 7.16C14.31 7.18 14.38 7.22 14.42 7.28C14.47 7.34 14.5 7.42 14.5 7.5C14.5 7.57 14.47 7.65 14.42 7.71C14.38 7.77 14.31 7.81 14.24 7.83L9.94 8.94C9.7 9 9.48 9.13 9.3 9.3C9.13 9.48 9 9.7 8.94 9.94L7.83 14.24C7.81 14.31 7.77 14.38 7.7 14.42C7.64 14.47 7.57 14.5 7.49 14.5C7.42 14.5 7.34 14.47 7.28 14.42C7.22 14.38 7.18 14.31 7.16 14.24L6.05 9.94Z" fill="#9CC3FD" fill-opacity="1.000000" fill-rule="nonzero"/>
	<path id="Vector" d="M5.68 9.3C5.51 9.13 5.29 9 5.04 8.94L0.75 7.83C0.68 7.81 0.61 7.77 0.57 7.71C0.52 7.65 0.5 7.57 0.5 7.5C0.5 7.42 0.52 7.34 0.57 7.28C0.61 7.22 0.68 7.18 0.75 7.16L5.04 6.05C5.29 5.99 5.51 5.86 5.68 5.68C5.86 5.51 5.99 5.29 6.05 5.05L7.16 0.75C7.18 0.68 7.22 0.61 7.28 0.57C7.34 0.52 7.42 0.5 7.49 0.5C7.57 0.5 7.64 0.52 7.71 0.57C7.77 0.61 7.81 0.68 7.83 0.75L8.94 5.05C9 5.29 9.13 5.51 9.3 5.69C9.48 5.86 9.7 5.99 9.94 6.05L14.24 7.16C14.31 7.18 14.38 7.22 14.42 7.28C14.47 7.34 14.5 7.42 14.5 7.5C14.5 7.57 14.47 7.65 14.42 7.71C14.38 7.77 14.31 7.81 14.24 7.83L9.94 8.94C9.7 9 9.48 9.13 9.3 9.3C9.13 9.48 9 9.7 8.94 9.94L7.83 14.24C7.81 14.31 7.77 14.38 7.7 14.42C7.64 14.47 7.57 14.5 7.49 14.5C7.42 14.5 7.34 14.47 7.28 14.42C7.22 14.38 7.18 14.31 7.16 14.24L6.05 9.94C5.99 9.7 5.86 9.48 5.68 9.3Z" stroke="#9CC3FD" stroke-opacity="1.000000" stroke-width="1.000000" stroke-linejoin="round"/>
</svg>
